<svg t="1626592591543" class="icon" viewBox="0 0 1024 1024" version="1.1" xmlns="http://www.w3.org/2000/svg" p-id="15223" width="200" height="200"><path d="M997.5808 388.7104l-0.6656 0.7168c-18.8416 23.04-44.4928 39.4752-73.216 47.0016a223.5392 223.5392 0 0 1-44.544 7.5776l-50.8928-122.9312a282.2144 282.2144 0 0 0-74.4448-101.4784 41.472 41.472 0 0 0-21.248-9.5744l-15.9744-2.56h-73.5744L589.1584 204.8a95.6928 95.6928 0 0 0-68.0448 27.2384H473.6l-80.128 7.424H308.4288A232.6016 232.6016 0 0 0 0 457.3696v158.208c0 7.8336 28.6208 25.2416 28.6208 25.2416v-132.096l13.9264 37.376 19.6608 153.4464-11.264 137.216v26.4704h103.3728v-26.8288l-21.248-36.6592 4.2496-146.0224 16.0256 13.9264 38.0928 127.0784-7.424 42.496v26.5216h108.544v-26.7776l-19.7632-27.2384-35.328-107.52v-86.8864a364.544 364.544 0 0 0 54.784 4.1472c59.904 0 122.3168-3.84 173.2608-30.72l13.056 29.7472 13.4144 76.032-4.352 150.016v18.688h93.0304v-19.1488l-21.248-32.9728 18.0736-126.6688 3.1744-29.44 22.784 55.5008 21.248 53.1968-8.6016 80.384v18.7392h92.16v-18.6368l-19.3024-33.1776v-72.192l-48.8448-232.4992 21.9136 7.5264a23.7056 23.7056 0 0 0 30.208-3.6864 29.4912 29.4912 0 0 0 8.2944-20.0192l-6.144-44.6464 59.9552-2.4576a161.28 161.28 0 0 0 73.216 32.4608c9.0112 19.8656 23.9104 61.952 23.9104 81.7664 0.0512 14.9504-2.304 29.8496-7.0656 44.032a39.424 39.424 0 0 1-35.2768 22.3232 38.6048 38.6048 0 0 1-35.2256-38.8096v-1.3824h-34.0992v1.3824a75.6224 75.6224 0 0 0 147.712 23.1936c5.9392-20.736 8.8576-42.24 8.6016-63.8464a286.3616 286.3616 0 0 0-7.1168-68.4544c2.9696 0 6.0416-0.768 9.0624-1.4336a184.32 184.32 0 0 0 113.7664-77.5168l0.8704-1.28-15.104-6.7584z" p-id="15224"></path></svg>