<svg t="1626592500637" class="icon" viewBox="0 0 1024 1024" version="1.1" xmlns="http://www.w3.org/2000/svg" p-id="12552" width="200" height="200"><path d="M646.53 521.28c-35.76-37.6-69.91-76.87-107.93-112.17-28.37-26.34-39.42-54.3-38.2-92.79 2.41-75.71-56.73-143.84-132.53-160.74-7.01-1.56-14.28-5.48-19.59-10.26-23.3-21-45.85-42.8-68.86-64.11-4.89-4.53-10.09-9.15-15.99-12.13-17.86-9.03-37.79 3.16-37.5 22.33 0.39 25.22 0.35 50.44 1.11 75.65 0.23 7.78-3.11 12.18-8.21 17.95-13.71 15.53-30.97 31.08-36.68 49.61-7.57 24.6-22.23 38.9-43.1 50.41-3.15 1.73-5.82 4.47-9.13 5.72-30.47 11.47-33.31 34.52-29.62 62.16 6.34 47.43 42.83 81.3 92.06 82.97 14.03 0.48 28.14 0.9 42.12 0.03 12.08-0.75 16.61 2.47 16.29 15.23-0.55 21.6-2.25 44.05 2.73 64.72 9.6 39.86 23.92 78.61 35.47 118.05 5.54 18.91 12.36 38.22 13.15 57.56 1.91 46.83-0.22 93.8 1.06 140.67 0.48 17.41-3.14 26.65-21.35 34.12-36.76 15.08-59.92 58.63-52.7 91.71h157.05c6.14-34.85 23.37-62.03 56.43-75.28 16.33-6.54 19.56-14.81 18.95-30.19-2.09-53.23 17.49-97.86 59.87-131.9 29.99-24.09 64.68-35.95 104.49-35.26v50.82c-3.32 0.44-5.51 0.81-7.72 1.01-62.95 5.61-103.68 49.35-103.64 111.31 0.01 20.8 0.04 41.59-0.02 62.39-0.02 4.23-0.43 8.46-0.7 13.38-30.14 0.18-60.86-3.14-72.83 33.16h332.12c0-41.36 0.1-81.61-0.02-121.86-0.32-120.84-42.32-225.69-126.58-314.27z m278.24 195.68c0.01-0.64-1.11-1.3-1.62-1.86h-51.44c0 15.72 0.2 30.65-0.05 45.58-0.36 21.5-7.2 42.47-25.98 52.81-21.26 11.71-22.44 27.3-21.13 46.86 1.09 16.3 0.23 32.72 0.23 49.08v45.34c3.3-0.2 5.1-0.06 6.77-0.46 46.69-11.27 86.78-51.2 90.9-98.31 4.02-46.07 1.85-92.66 2.32-139.04z" p-id="12553"></path></svg>