<svg t="1626940868648" class="icon" viewBox="0 0 1024 1024" version="1.1" xmlns="http://www.w3.org/2000/svg" p-id="11684" width="200" height="200"><path d="M509.952 1024C227.328 1024 0 792.576 0 509.952S227.328 0 509.952 0 1024 227.328 1024 509.952C1024 792.576 792.576 1024 509.952 1024z" fill="#ffffff" p-id="11685"></path><path d="M509.952 980.992c-258.048 0-466.944-210.944-466.944-471.04 0-258.048 208.896-466.944 466.944-466.944s471.04 208.896 471.04 466.944c0 260.096-210.944 471.04-471.04 471.04z" fill="#1296db" p-id="11686"></path><path d="M227.328 159.744s-4.096 0-4.096 4.096l4.096-4.096zM886.784 401.408c-4.096 0-4.096-4.096-4.096-8.192-4.096 0-8.192 4.096-8.192 8.192 6.144 0 8.192 4.096 12.288 0zM794.624 176.128c0 4.096 2.048 0 2.048 0h-2.048zM796.672 176.128c4.096 0 4.096 0 4.096-4.096l-4.096 4.096zM690.176 204.8c0 4.096 4.096 4.096 8.192 4.096 0-4.096-4.096 0-8.192-4.096zM139.264 208.896c0-4.096-4.096 0-4.096 0h4.096zM133.12 223.232c8.192-4.096 0-6.144 0-14.336h-8.192c-2.048 0-2.048 4.096-2.048 4.096 0 4.096 4.096 4.096 10.24 4.096 0 2.048-2.048 6.144 0 6.144zM155.648 180.224c0-4.096 4.096-4.096 0-8.192 0 0 0 4.096-4.096 4.096 0 0 0 4.096 4.096 4.096zM491.52 380.928v-4.096c-2.048-2.048-2.048 4.096 0 4.096zM532.48 229.376c-8.192 14.336-18.432 18.432-18.432 36.864 0 0 4.096 4.096 4.096 10.24-4.096 8.192-8.192 14.336-10.24 22.528-14.336 8.192-10.24-18.432-18.432-18.432 0 8.192 4.096 14.336 8.192 18.432-4.096 0-4.096 4.096 0 4.096 0-4.096 4.096 0 4.096 4.096 4.096 0 4.096-4.096 10.24-8.192 4.096 0 8.192 4.096 10.24 0 4.096-4.096 4.096-14.336 8.192-22.528 8.192-4.096 0 8.192 4.096 8.192V266.24c-4.096 0-8.192-4.096-10.24-8.192 0-14.336 10.24-14.336 10.24-26.624l-2.048-2.048zM280.576 311.296l-4.096 4.096c-2.048 0 4.096 0 4.096-4.096zM845.824 499.712c-6.144 4.096 4.096 4.096 0 10.24 4.096 4.096 6.144 4.096 10.24 4.096-4.096-10.24-4.096-4.096 0-10.24-6.144 2.048-6.144-8.192-10.24-4.096zM567.296 223.232c0 4.096 0 18.432 10.24 18.432 4.096-4.096-4.096-8.192 0-8.192 4.096-4.096 10.24 0 10.24-8.192-8.192-2.048-14.336-2.048-20.48-2.048zM552.96 200.704c0 4.096 2.048 0 0 0zM690.176 204.8c4.096-8.192-6.144 0 0 0zM538.624 274.432c4.096 0 8.192 0 8.192-6.144-2.048 0-8.192 0-8.192 6.144zM804.864 169.984c0-4.096-4.096 0 0 0z" fill="#1296db" p-id="11687"></path><path d="M911.36 753.664c-14.336 0-24.576 0-28.672 8.192-10.24 0-14.336 4.096-22.528 8.192-4.096 0-4.096-4.096-10.24-4.096 0-8.192 4.096-10.24 4.096-18.432 0-4.096-4.096-8.192-4.096-10.24 4.096-8.192 0-18.432-4.096-24.576 4.096-4.096 10.24-4.096 14.336-4.096 4.096-4.096 4.096-14.336 8.192-18.432 4.096-4.096 0 0 4.096 0s0-10.24 4.096-10.24 10.24-4.096 14.336 0c4.096 0 4.096-10.24 4.096-14.336 4.096-4.096 10.24-4.096 14.336-8.192 4.096 0 4.096-8.192 4.096-8.192 10.24 4.096 24.576-4.096 28.672 4.096 4.096 8.192-8.192 4.096-4.096 8.192-4.096 8.192 4.096 4.096 4.096 10.24 8.192-4.096 4.096 4.096 10.24 4.096 8.192-8.192 0-24.576 4.096-32.768 4.096 0 4.096 4.096 8.192 4.096v8.192c4.096-8.192 4.096-14.336 8.192-22.528-4.096 4.096-4.096 8.192-8.192 8.192-8.192-4.096-8.192-10.24-14.336-8.192v-10.24c-8.192-8.192-14.336-10.24-22.528-18.432-4.096 0-8.192 8.192-8.192 0-4.096-4.096 4.096 0 4.096-4.096 4.096-4.096 4.096 4.096 8.192 0 4.096 4.096 4.096 0 8.192-4.096h10.24c8.192 4.096 10.24 14.336 22.528 14.336v4.096c0 4.096 4.096 4.096 4.096 4.096 8.192-32.768 10.24-67.584 10.24-108.544 0-81.92-22.528-157.696-57.344-227.328-8.192 0-4.096 8.192-8.192 4.096-8.192 0-8.192 8.192-8.192 14.336-4.096 4.096-8.192 4.096-8.192 8.192 4.096 14.336 14.336-8.192 18.432 8.192 4.096 0 0-8.192 4.096-8.192s4.096 10.24 4.096 14.336c4.096 8.192 4.096 10.24 10.24 14.336 0 8.192 4.096 8.192 4.096 10.24-4.096 4.096-4.096 0-8.192 0 0 8.192 4.096 8.192 0 10.24-8.192-4.096-8.192-14.336-8.192-24.576 0-8.192-8.192-8.192-4.096-18.432-4.096 10.24 0 24.576 0 38.912-8.192 8.192-10.24 14.336-14.336 24.576-4.096 0-8.192 4.096-10.24 8.192-4.096 10.24 4.096 32.768-4.096 38.912-8.192-4.096-10.24-4.096-8.192-14.336-4.096-8.192-8.192-8.192-10.24-14.336-10.24 0 0 10.24-4.096 10.24 0 4.096 0 8.192-4.096 4.096 0 8.192-4.096 8.192 0 10.24 0 4.096 0 8.192 4.096 8.192 0 8.192 4.096 10.24 4.096 10.24-4.096 4.096 0 18.432-4.096 24.576 0 0 0 4.096-4.096 4.096-4.096 10.24-10.24 18.432-14.336 24.576-8.192 0-14.336 0-14.336 8.192h4.096c0 8.192 0 10.24-4.096 10.24 0 22.528-4.096 38.912-18.432 38.912 0-4.096 0-4.096-4.096-8.192-4.096 0-8.192-8.192-10.24-10.24-4.096 0-4.096 10.24-4.096 14.336 4.096 8.192 8.192 10.24 10.24 14.336 0 10.24 8.192 10.24 8.192 24.576l-22.528-22.528c0-10.24-4.096-10.24-4.096-14.336 0-8.192 4.096-8.192 4.096-10.24s-4.096-8.192-8.192-10.24c4.096-4.096 0-8.192 0-10.24-4.096-4.096-10.24 0-14.336-4.096 0-4.096 4.096-4.096 4.096-10.24-8.192 0-8.192-10.24-10.24-14.336-8.192 0-10.24 4.096-14.336 8.192 0 4.096-8.192 8.192-8.192 14.336-4.096 0 0 8.192-8.192 4.096v8.192h-8.192c4.096 14.336-4.096 22.528-4.096 32.768h-10.24v-10.24c-4.096-8.192-4.096-10.24-8.192-14.336-4.096-8.192-8.192-14.336-10.24-22.528 0-8.192-4.096-8.192 0-14.336-4.096 0-8.192 0-10.24-4.096 0-4.096 0-4.096 4.096-4.096-8.192-4.096-10.24-10.24-18.432-8.192-4.096 0-4.096-4.096-8.192-4.096-8.192 0-8.192 4.096-14.336 4.096 0-8.192-4.096-4.096-4.096-8.192-14.336 0-10.24-18.432-22.528-24.576l6.144 4.096c4.096 4.096 0 8.192 8.192 8.192 0 10.24 4.096 10.24 4.096 18.432 4.096-4.096 8.192-4.096 14.336-4.096-4.096 10.24 8.192 10.24 8.192 18.432s-4.096 8.192-4.096 14.336c-8.192 4.096-8.192 8.192-14.336 8.192-4.096 0 0 8.192-4.096 8.192-10.24 4.096-18.432 10.24-28.672 14.336-8.192-4.096-8.192-18.432-10.24-24.576-8.192-8.192-10.24-14.336-18.432-22.528 4.096-4.096-4.096-14.336-8.192-18.432 0 0 4.096 10.24 0 14.336l10.24 10.24c-4.096 14.336 8.192 10.24 8.192 22.528 4.096 8.192 10.24 10.24 10.24 24.576h14.336c8.192 0 8.192-8.192 14.336-8.192 4.096 4.096 0 14.336 0 22.528-8.192 10.24-14.336 24.576-22.528 36.864-4.096 4.096-8.192 8.192-10.24 8.192 0 10.24-4.096 18.432-8.192 24.576 4.096 14.336 4.096 36.864 0 51.2-10.24 8.192-18.432 18.432-18.432 38.912-4.096 0-8.192 0-10.24 4.096 4.096 8.192 0 8.192 0 14.336-8.192 8.192-10.24 14.336-14.336 22.528-10.24 4.096-18.432 14.336-32.768 14.336-8.192-8.192-8.192-24.576-14.336-36.864v-14.336c-4.096-10.24-8.192-22.528-14.336-28.672 4.096-8.192 4.096-22.528 8.192-28.672-4.096-10.24-4.096-22.528-8.192-24.576 4.096-14.336-4.096-22.528-8.192-28.672-4.096-10.24 4.096-18.432 0-32.768-4.096 0-4.096 4.096-8.192 4.096-4.096-4.096-4.096-8.192-12.288-8.192-4.096 0 0-8.192-4.096-8.192-8.192 0-8.192 8.192-10.24 10.24h-22.528c-8.192 0-14.336-8.192-22.528-14.336 0-10.24-4.096-18.432-10.24-24.576v-43.008c4.096-8.192 8.192-14.336 8.192-24.576l14.336-14.336c4.096-8.192 4.096-18.432 8.192-24.576 4.096-4.096 8.192-4.096 10.24-10.24 4.096 0 8.192 0 8.192 4.096 8.192-8.192 18.432-8.192 28.672-8.192 8.192-4.096 14.336-4.096 22.528-4.096 4.096 4.096 4.096 8.192 0 8.192 0 4.096 4.096 4.096 4.096 10.24 8.192 8.192 22.528 8.192 24.576 18.432 8.192-4.096 4.096-10.24 10.24-10.24 14.336 0 24.576 0 36.864 8.192 8.192-4.096 4.096-14.336 10.24-18.432v-10.24c-8.192 0-4.096 10.24-10.24 10.24-4.096 0 4.096-8.192 0-10.24-8.192 4.096-14.336 8.192-22.528 0-4.096 0 0-8.192-4.096-8.192v-14.336h-4.096c-4.096 8.192 0 18.432 0 22.528 4.096 0 8.192 4.096 8.192 8.192-4.096-4.096-10.24 0-10.24-4.096 0 0 4.096 0 4.096-4.096-4.096 0-10.24 4.096-10.24 0v-10.24c0-4.096-4.096-4.096-4.096-8.192l-4.096-8.192c-4.096-8.192-14.336-10.24-18.432-18.432-4.096 10.24 14.336 14.336 18.432 22.528-4.096 8.192-4.096-4.096-8.192 0 0 4.096 4.096 4.096 4.096 8.192-4.096 4.096-10.24 4.096-8.192 10.24-4.096-4.096-10.24 0-8.192-8.192 4.096 0 8.192 0 8.192-4.096-4.096-8.192-8.192-10.24-14.336-10.24-4.096-4.096-4.096-8.192-4.096-8.192-4.096 10.24 4.096 18.432-8.192 18.432 0-8.192-4.096-18.432 0-24.576-4.096 0-8.192 8.192-14.336 4.096-8.192 0-8.192 10.24-14.336 10.24 4.096 14.336-4.096 18.432-8.192 24.576-4.096-4.096-8.192-4.096-10.24 0-4.096 0-8.192-4.096-14.336-4.096 4.096-8.192 0-10.24-4.096-14.336 8.192 0 4.096-14.336 4.096-18.432 10.24 0 14.336-8.192 22.528 0 4.096-4.096 4.096-8.192 8.192-8.192 0-10.24-8.192-8.192-8.192-14.336-4.096 0-8.192 0-10.24-4.096 0-4.096 4.096-8.192 8.192-8.192s8.192-8.192 14.336-8.192v-4.096c-10.24 0-18.432 0-24.576 4.096 0-8.192 8.192-4.096 8.192-8.192s-4.096-8.192-4.096-14.336c4.096 4.096 10.24 0 10.24-8.192-4.096 0-8.192 0-10.24-4.096 0-10.24 4.096-14.336 4.096-22.528 4.096-4.096 8.192-8.192 10.24-4.096 0 4.096 0 4.096-4.096 4.096 0 4.096 4.096 4.096 8.192 8.192-8.192 10.24 4.096 10.24 4.096 22.528 0 4.096 4.096 4.096 8.192 4.096-8.192 8.192-8.192 10.24-8.192 18.432 8.192 4.096 0-10.24 10.24-8.192 0-8.192 0-8.192 4.096-10.24 4.096 0 8.192-4.096 14.336-4.096-4.096-4.096 0-8.192-4.096-8.192 0-4.096 0-8.192 4.096-10.24 0-4.096-10.24 0-10.24-8.192s0-14.336-4.096-18.432c4.096-8.192 4.096-18.432 14.336-18.432v-8.192h4.096c4.096-4.096 8.192-10.24 10.24-18.432 4.096-8.192 10.24-10.24 18.432-18.432 0 0 4.096-4.096 4.096 0l10.24-10.24h14.336c4.096 4.096 8.192 8.192 8.192 10.24 8.192 0 10.24 4.096 14.336 8.192 8.192 0 22.528 8.192 18.432 18.432 8.192 0 8.192-8.192 8.192-18.432h10.24v10.24c8.192 0 10.24-8.192 18.432-10.24 8.192 0 14.336-4.096 22.528 0 4.096-8.192-8.192-4.096-8.192-10.24 10.24 0 10.24 4.096 22.528 4.096 4.096-8.192 10.24-10.24 14.336-22.528 8.192 0 8.192 8.192 10.24 8.192 4.096 4.096 0-4.096 8.192-4.096v10.24c8.192 0 4.096-8.192 4.096-10.24 10.24 0 10.24 4.096 18.432 8.192 0-8.192-10.24-4.096-10.24-10.24s8.192-4.096 10.24-4.096c4.096 0 4.096-8.192 4.096-8.192 8.192 0 8.192-4.096 10.24-8.192 8.192 0 14.336-4.096 18.432-8.192 4.096 0 4.096 4.096 4.096 8.192 8.192 0 4.096-10.24 10.24-8.192 0-8.192 4.096-10.24 8.192-10.24 4.096-4.096 4.096 4.096 8.192 8.192 8.192 0 14.336 0 18.432-4.096-8.192 16.384-4.096 16.384 0 24.576 0 4.096-4.096 4.096-4.096 10.24 8.192-4.096 10.24 0 14.336 0 0 4.096 4.096 0 4.096 0 8.192 4.096 10.24 8.192 18.432 4.096 4.096 0 4.096 8.192 10.24 8.192h18.432C776.192 98.304 651.264 40.96 509.952 40.96c-94.208 0-180.224 24.576-251.904 71.68h43.008c0 4.096 4.096 0 4.096 4.096-4.096 10.24-10.24 4.096-18.432 8.192-4.096 0 4.096 8.192 0 10.24-8.192 0-8.192 4.096-10.24 8.192-10.24-8.192-10.24 2.048-16.384 2.048 4.096 10.24-8.192 8.192-8.192 18.432h-10.24c0 4.096 8.192 0 8.192 4.096s-4.096 8.192-8.192 8.192c-4.096 10.24-18.432 4.096-28.672 4.096 0-8.192-10.24-4.096-10.24-10.24 8.192-4.096 14.336 8.192 28.672 4.096-4.096-10.24-12.288-10.24-22.528-6.144 0-8.192 4.096-8.192 4.096-10.24 4.096-4.096 8.192 0 10.24 0 0-4.096-4.096-8.192-8.192-4.096 0-4.096 10.24-8.192 8.192-8.192-4.096-8.192 8.192 0 8.192-8.192-8.192-4.096-14.336 4.096-18.432 14.336-4.096 0-4.096-4.096-8.192-4.096-6.144 6.144-10.24 12.288-16.384 16.384 4.096 4.096 4.096 4.096 4.096 8.192-4.096 0-8.192 2.048-12.288 2.048s-4.096 4.096-6.144 4.096H184.32c4.096 4.096 4.096 8.192 4.096 14.336-8.192 4.096-12.288 10.24-18.432 10.24 0 8.192 4.096 8.192 0 10.24-8.192 4.096-8.192-4.096-14.336 0 4.096 4.096 8.192 8.192 14.336 10.24 8.192 0 8.192-10.24 14.336-8.192v10.24c4.096-4.096 8.192-14.336 0-18.432 0-8.192 4.096-4.096 4.096-10.24 8.192 0 8.192 8.192 10.24 4.096 4.096 10.24 8.192 14.336 14.336 18.432 0 8.192-8.192 8.192-4.096 10.24 4.096-4.096 8.192-8.192 8.192-14.336 0-4.096-4.096 0-8.192 0-8.192-10.24 0-28.672 8.192-32.768 8.192 0 8.192 4.096 8.192 8.192 0-4.096 14.336-8.192 14.336 4.096 4.096 0 8.192-4.096 14.336-4.096 0 8.192 4.096 4.096 4.096 10.24h14.336c0 8.192 4.096 8.192 8.192 10.24 0 4.096-4.096 4.096-8.192 8.192 8.192 4.096 10.24 8.192 14.336 8.192 4.096 0 0 8.192 4.096 4.096v10.24c-4.096 0-4.096 4.096-4.096 8.192-8.192 0-8.192-8.192-14.336-8.192 0 8.192 8.192 8.192 8.192 10.24 0 10.24-8.192 10.24-4.096 22.528-10.24-4.096-14.336-14.336-24.576-18.432-8.192 0-10.24 0-14.336-4.096 0-14.336 18.432-10.24 18.432-22.528 4.096-8.192-8.192-4.096-4.096-14.336-8.192 4.096-10.24-4.096-14.336 0 0-4.096-8.192-4.096-10.24-4.096 0 4.096 4.096 4.096 8.192 8.192-4.096 4.096-4.096 10.24-4.096 18.432-8.192 4.096-10.24 4.096-22.528 8.192v8.192c-8.192 0-10.24 8.192-10.24 14.336-8.192 0-8.192 8.192-14.336 10.24 0 4.096 0 8.192-4.096 8.192s4.096 0 4.096 6.144c8.192 4.096 10.24 8.192 14.336 10.24 4.096 0 8.192-4.096 8.192 4.096 4.096 0 4.096-8.192 8.192-4.096 0 8.192 0 18.432 4.096 22.528 4.096-8.192 4.096-18.432 8.192-22.528 0 0-4.096 4.096-4.096-4.096 0-4.096 8.192 4.096 8.192 0 0-10.24 4.096-22.528 4.096-38.912 4.096 4.096 4.096-4.096 8.192 0 4.096 0 4.096 4.096 8.192 0 8.192 0 4.096 10.24 14.336 8.192v18.432c0 4.096 8.192 0 10.24 0v-8.192c8.192 0 8.192 10.24 10.24 14.336v8.192c0 10.24 8.192 10.24 8.192 18.432 4.096 0 4.096-4.096 8.192 0v22.528c4.096 8.192 4.096 10.24 10.24 10.24-4.096 4.096-4.096 10.24 0 14.336-8.192 0-10.24-8.192-10.24 0-4.096 0-4.096-8.192-4.096-8.192-4.096-4.096-8.192 4.096-10.24 0 4.096-10.24 10.24-14.336 14.336-24.576-8.192-4.096-14.336 10.24-22.528 8.192-4.096 4.096 0 4.096 0 8.192-4.096 4.096-8.192 4.096-8.192 8.192 0 8.192 8.192 8.192 10.24 10.24-4.096 4.096-10.24 8.192-18.432 10.24 0-4.096 4.096-4.096 4.096-8.192-8.192 4.096-14.336 4.096-22.528 10.24 0 4.096 4.096 4.096 4.096 10.24-8.192 0-10.24 4.096-14.336 4.096 0 14.336-8.192 10.24-4.096 22.528-4.096 0-4.096 4.096-8.192 0v10.24c-10.24 4.096-18.432 10.24-22.528 22.528 0 4.096 4.096 8.192 8.192 10.24-4.096 4.096-4.096 8.192 0 18.432-10.24-4.096-14.336-8.192-10.24-18.432-8.192-10.24-14.336-6.144-22.528-6.144-4.096 0-4.096 0-4.096 4.096-8.192 0-10.24-8.192-18.432-4.096-4.096 0-8.192 4.096-14.336 8.192 8.192 10.24-8.192 43.008 14.336 43.008 4.096-4.096 4.096-10.24 4.096-14.336h18.432c0 10.24-4.096 14.336-8.192 22.528 8.192 4.096 18.432 4.096 18.432 8.192 4.096 14.336-4.096 22.528 0 28.672 8.192 0 8.192-4.096 10.24-8.192 4.096 0 8.192 4.096 8.192 10.24 4.096-8.192 10.24-10.24 10.24-18.432 8.192 4.096 8.192 0 8.192-4.096 4.096 0 8.192 4.096 8.192 8.192 4.096 0 4.096-8.192 8.192-8.192 4.096 8.192 10.24 8.192 10.24 14.336 4.096 0 4.096-4.096 4.096-4.096 10.24 4.096 14.336 10.24 22.528 10.24 0 8.192 4.096 14.336 10.24 18.432 14.336-10.24 22.528 14.336 18.432 22.528 0 4.096 4.096 4.096 8.192 4.096 4.096 8.192 10.24 4.096 14.336 8.192h10.24c8.192 4.096 10.24 8.192 14.336 10.24 4.096 0 4.096-4.096 8.192 0 0 4.096 4.096 10.24 4.096 14.336 0 8.192-4.096 8.192-4.096 10.24-4.096 4.096 0 8.192-4.096 10.24 0 8.192-4.096 8.192-8.192 14.336h-4.096c0 4.096 0 8.192-4.096 10.24 8.192 10.24 0 22.528-4.096 32.768-4.096 4.096-4.096 4.096-10.24 4.096-4.096 4.096-8.192 10.24-8.192 10.24v14.336c-4.096 4.096-10.24 8.192-10.24 18.432-4.096 0-4.096 4.096-8.192 8.192v4.096h-14.336c0 4.096 4.096 8.192 4.096 18.432-8.192 0-8.192 8.192-18.432 8.192 0 4.096 0 14.336-10.24 10.24 10.24 4.096 4.096 18.432 0 24.576 0 8.192 8.192 4.096 4.096 10.24 0 4.096 0 8.192-4.096 8.192 0 8.192-8.192 8.192-8.192 14.336 0 8.192 8.192 4.096 8.192 10.24 0 4.096 4.096 4.096 8.192 8.192 0 4.096-10.24 0-14.336 4.096-4.096-4.096-8.192-8.192-10.24-8.192v-8.192c-8.192-4.096-8.192-14.336-10.24-18.432 4.096-8.192 0-14.336-4.096-28.672 4.096-4.096 0-8.192 4.096-10.24 0-8.192-8.192-4.096-4.096-8.192 0-8.192 8.192-8.192 8.192-14.336 0-4.096-8.192 4.096-8.192 0 4.096-14.336 0-32.768 8.192-38.912 0-10.24-4.096-18.432 0-28.672 0 0 0-4.096-4.096-8.192 4.096 0 0-4.096 4.096-8.192 0-10.24-4.096-18.432-8.192-24.576-10.24 0-10.24-10.24-18.432-14.336 0-8.192 4.096-8.192 4.096-10.24-10.24-4.096-14.336-8.192-14.336-22.528 4.096 0 8.192 0 8.192-4.096-4.096-4.096-8.192-4.096-10.24-8.192 8.192-8.192-4.096-14.336 0-24.576 0-8.192 8.192-8.192 8.192-18.432-8.192-2.048-2.048-2.048-2.048-6.144-4.096-4.096-8.192-10.24-8.192-14.336-4.096 0-4.096 4.096-4.096 8.192-4.096-4.096-8.192-10.24-16.384-14.336v-4.096c-4.096-4.096-8.192-8.192-8.192-10.24-8.192 0-8.192-4.096-14.336 0 0-4.096-4.096-8.192-4.096-14.336-14.336 4.096-22.528-4.096-36.864-8.192-4.096-8.192-8.192-14.336-8.192-24.576 0-8.192-8.192-10.24-10.24-14.336 0-4.096 0-8.192-4.096-8.192 0 10.24 4.096 8.192 4.096 18.432-4.096 0-4.096-4.096-8.192-4.096-4.096-8.192-8.192-14.336-10.24-18.432v-4.096c-4.096-8.192-4.096-18.432-8.192-24.576-2.048-2.048-2.048-6.144-6.144-10.24-4.096-18.432-4.096-32.768 0-51.2-4.096-8.192 0-4.096 0-8.192v-4.096c-14.336 49.152-20.48 100.352-20.48 151.552C40.96 772.096 251.904 983.04 509.952 983.04c172.032 0 323.584-90.112 405.504-227.328l-4.096-2.048zM618.496 188.416c0-8.192 8.192-8.192 8.192-14.336 8.192-6.144 16.384-10.24 26.624-10.24v-4.096h10.24c-4.096 8.192-8.192 10.24-18.432 10.24-8.192 4.096-10.24 14.336-22.528 14.336 0 10.24 8.192 14.336 8.192 22.528-4.096 0-4.096 4.096-4.096 4.096-8.192 0-10.24-8.192-14.336-10.24 2.048-4.096 6.144-4.096 6.144-12.288z m-401.408 71.68c-8.192 0-10.24 0-10.24-8.192 8.192 4.096 4.096-4.096 8.192-8.192s4.096 4.096 10.24 0c4.096 4.096 0 8.192 4.096 10.24-2.048 14.336-12.288-8.192-12.288 6.144z m6.144 221.184c4.096 0 8.192 4.096 8.192 8.192 0 0 4.096 0 4.096 4.096 4.096 4.096-8.192 4.096-4.096-4.096-4.096 0-4.096 4.096-8.192 4.096v-12.288z m-6.144-8.192h4.096c0 4.096 4.096 4.096 4.096 10.24-8.192 0-8.192-2.048-8.192-10.24z m-12.288 0c4.096 0 8.192 4.096 8.192 8.192H204.8v-8.192z m0 38.912v-8.192c4.096 0 10.24-4.096 8.192 4.096-4.096 4.096-4.096 2.048-8.192 4.096z m26.624 0c-4.096 0-4.096-4.096-10.24-4.096 0-4.096-4.096-8.192 4.096-8.192 0-4.096-8.192 0-10.24-4.096-10.24 2.048-10.24-4.096-16.384-4.096-8.192-4.096-8.192 4.096-14.336 4.096 0-8.192 4.096-8.192 4.096-10.24h22.528c0 4.096 8.192 4.096 10.24 8.192 0 4.096 4.096 4.096 4.096 8.192 8.192 0 14.336 0 18.432 10.24-6.144-2.048-12.288-2.048-12.288 0z m14.336 0v-8.192h8.192c2.048 8.192-6.144 8.192-8.192 8.192z m43.008 337.92c0-8.192 8.192-8.192 8.192 0h-8.192z m145.408-528.384c-4.096 4.096-10.24 4.096-14.336 4.096v-14.336c4.096 0 4.096 4.096 8.192-4.096h8.192c-2.048 8.192-4.096 8.192-2.048 14.336z m8.192-71.68c-4.096 4.096-8.192 0-8.192 8.192-4.096-4.096-10.24-4.096-14.336 0-4.096-4.096 0-10.24-8.192-8.192-4.096-8.192 4.096-8.192 4.096-10.24-4.096 0-4.096 4.096-8.192 0 0-8.192 8.192-4.096 4.096-10.24 8.192 0 8.192 4.096 10.24 8.192 8.192-4.096 8.192 0 14.336-4.096 2.048 6.144 6.144 10.24 6.144 16.384z m-71.68-10.24c-8.192-4.096-8.192 4.096-10.24 0-4.096 0-4.096 8.192-8.192 8.192 4.096 14.336-8.192 14.336-8.192 28.672-4.096 0-4.096 4.096-4.096 8.192-8.192 0-4.096-8.192-8.192-8.192h-10.24c-10.24-10.24 0-32.768-10.24-38.912-4.096-8.192 8.192-8.192 4.096-10.24 0-4.096 8.192-4.096 10.24-8.192-4.096-8.192-14.336-4.096-14.336-14.336 4.096 0 10.24 4.096 8.192-4.096-4.096-8.192-4.096 4.096-10.24 0 0-4.096 4.096-8.192 4.096-10.24-4.096-4.096-4.096-8.192-4.096-14.336-10.24 0-14.336-4.096-18.432-8.192-4.096 0-4.096 4.096-8.192 4.096-8.192-4.096-10.24-4.096-14.336-10.24 8.192-4.096 14.336 0 22.528 0 0-10.24-8.192-4.096-10.24-4.096 0-4.096-8.192-4.096-8.192 0-4.096 0-4.096-4.096-8.192-4.096 0-8.192 8.192-8.192 10.24-4.096 6.144-6.144 14.336-6.144 16.384-10.24 0-4.096-8.192 0-4.096-8.192 14.336 0 22.528-14.336 36.864-14.336 10.24 4.096 18.432 0 28.672 0 0 0-4.096-8.192-4.096-10.24 4.096-6.144 12.288-4.096 18.432-4.096 8.192-4.096 22.528 0 28.672-4.096 4.096 0 8.192 0 8.192 4.096 4.096-4.096 8.192-4.096 14.336 0 8.192 0 14.336 0 18.432 4.096-4.096 10.24-14.336 4.096-14.336 14.336 0 4.096 8.192-4.096 14.336-4.096s4.096 4.096 8.192 4.096c4.096 4.096 10.24 0 8.192 8.192 4.096 8.192-8.192 0-10.24 4.096-4.096-4.096-4.096 4.096-8.192 4.096-4.096 8.192 0 8.192 0 10.24-8.192 0-4.096 4.096-10.24 4.096 8.192 4.096 14.336 4.096 14.336 10.24-8.192 0-10.24 0-14.336 4.096 4.096 8.192 8.192 24.576-8.192 24.576 4.096 4.096 8.192 8.192 4.096 10.24 0 0-4.096 0-4.096-4.096-8.192 4.096 8.192 8.192 0 10.24-8.192 0-10.24-4.096-14.336-8.192-4.096 0-4.096 4.096-8.192 4.096 4.096 4.096 10.24 10.24 14.336 4.096 4.096 8.192-10.24 10.24-10.24 14.336-8.192 4.096-10.24 10.24-18.432 10.24-4.096 4.096-4.096 8.192-8.192 8.192z m258.048 448.512s0 4.096-4.096 4.096v10.24c-4.096 8.192 0 10.24-4.096 18.432-8.192 0-8.192 4.096-14.336 0-4.096-4.096 0-10.24-4.096-18.432 4.096-4.096 4.096-8.192 4.096-10.24 4.096-8.192 0-8.192 0-14.336 4.096-4.096 8.192-10.24 14.336-10.24 0-8.192 4.096-14.336 4.096-18.432 8.192 0 4.096 10.24 8.192 10.24 0 14.336-4.096 22.528-4.096 28.672z m110.592-124.928c-4.096-4.096 4.096-8.192 0-18.432 4.096 4.096 8.192 8.192 8.192 14.336-4.096 0 0 4.096-8.192 4.096z m153.6 49.152c-4.096 4.096-4.096-4.096-8.192-8.192-4.096 4.096-4.096 8.192-4.096 10.24-10.24-4.096-8.192-24.576 0-32.768 4.096 8.192 14.336 4.096 14.336 10.24-4.096 4.096-8.192 4.096-8.192 0 4.096 10.24 6.144 14.336 6.144 20.48z m18.432-16.384c0-10.24 14.336-10.24 18.432-8.192 0 8.192-10.24 10.24-18.432 8.192z m18.432-233.472c10.24 0 14.336 8.192 22.528 8.192-8.192 0-4.096 10.24-8.192 14.336-4.096 0-4.096-4.096-8.192-4.096-4.096-4.096-4.096 8.192-8.192 4.096 2.048-8.192 6.144-16.384 2.048-22.528zM905.216 430.08c0-10.24 10.24-8.192 14.336-10.24 8.192-8.192 10.24-8.192 14.336-10.24 0-4.096 0-4.096 4.096-4.096-4.096-10.24 0-14.336-4.096-22.528h8.192c0 14.336 4.096 22.528 4.096 36.864-8.192 8.192-14.336 8.192-22.528 14.336 0 0 0-4.096-4.096-4.096-4.096 4.096-8.192 8.192-10.24 14.336 0-4.096-4.096-4.096-4.096-10.24h8.192c-2.048-8.192-8.192 0-8.192-4.096z m-8.192 104.448c4.096-4.096 0-8.192 4.096-10.24 4.096 0 8.192 4.096 8.192 8.192s8.192 4.096 8.192 10.24c-8.192 0-10.24 4.096-14.336 8.192-4.096 0-4.096-4.096-4.096-8.192-4.096 0-4.096 4.096-8.192 0 2.048-4.096 2.048-12.288 6.144-8.192z m-4.096-32.768c0 10.24-4.096 10.24-8.192 18.432-4.096-4.096-8.192-8.192-8.192-10.24 2.048-12.288 14.336-12.288 16.384-8.192z m-10.24-28.672c0 8.192 0 14.336-8.192 18.432 0-8.192 0-10.24-4.096-10.24 2.048-8.192 8.192-12.288 12.288-8.192z m-18.432 90.112c8.192 0 10.24 4.096 14.336 8.192 0 4.096-4.096 8.192-8.192 8.192 4.096 4.096 0 10.24 4.096 18.432-8.192 0-4.096 10.24-8.192 14.336h4.096c-4.096 4.096-8.192 4.096-8.192 8.192-8.192 4.096-8.192-8.192-18.432-8.192 0-8.192-4.096-8.192-8.192-14.336 8.192-20.48 26.624-16.384 28.672-34.816z m-38.912 53.248c-8.192 4.096-8.192-8.192-14.336-10.24 4.096-22.528-18.432-18.432-18.432-38.912 4.096 0 8.192 8.192 8.192 0 4.096 0 0 4.096 4.096 4.096 0 4.096 4.096 8.192 8.192 10.24 4.096 4.096 8.192 10.24 10.24 14.336-2.048 6.144 6.144 14.336 2.048 20.48z m4.096 10.24c-4.096-4.096 0-8.192 4.096-10.24 8.192 4.096 18.432 8.192 28.672 8.192 0 8.192 4.096 8.192 4.096 10.24-16.384 4.096-22.528-8.192-36.864-8.192z" fill="#ffffff" p-id="11688"></path><path d="M411.648 100.352c-6.144 0-20.48-4.096-24.576 4.096 6.144 0 14.336 0 20.48 4.096 0-2.048 4.096-6.144 4.096-8.192zM163.84 182.272c-8.192 0-8.192-2.048-12.288-2.048v8.192c4.096 0 12.288 0 12.288-6.144zM401.408 184.32c0-2.048 4.096-2.048 8.192-8.192-8.192 0-12.288 8.192-8.192 8.192zM77.824 456.704c-4.096 0-4.096-8.192-6.144-8.192-2.048 8.192 2.048 14.336 6.144 8.192z" fill="#34B1DA" p-id="11689"></path></svg>