<svg t="1626665900961" class="icon" viewBox="0 0 1024 1024" version="1.1" xmlns="http://www.w3.org/2000/svg" p-id="38712" width="200" height="200"><path d="M441.4 953.6c-11 0-21.4-1.6-31-4.8-25.7-8.6-45-28.4-55.7-57.2-11.1-29.7-6.3-62.3 6.3-124.5 1.2-6.7 22.1-121 54.8-185.3 25.5-49.9 80.2-70.7 82.6-71.5l16-6c2.4-0.9 59.8-22 109.6 0.3 55.6 24.9 129.9 79.6 154.6 98.3l5.9 4.5c0.6 0.5 1.1 0.9 1.5 1.2l0.1 0.1c50.2 38.8 75.1 60.3 86.2 90.2 20.8 55.9-5.6 105.2-68.8 128.7-23.6 8.8-40.7 15.1-88.7 8.8l-1.8-0.2-1.3-0.6c-1.6-0.6-30.6-10.5-79.1 9.8l-0.9 0.4c-50.4 16.5-65.9 43.2-66.7 44.7l-0.7 1.6-1.1 1.1c-31.8 35.8-48.5 42-71.6 50.6l-0.7 0.3c-17.2 6.2-33.9 9.5-49.5 9.5z m82.4-426.2l-16.8 6.3c-0.5 0.2-48 18.4-69 59.4-31.4 61.6-52.3 177.3-52.5 178.5l-0.1 0.3c-11.7 57.5-16.2 87.2-7.4 110.9 8.1 21.8 21.6 36 40.2 42.2 17.8 6 39.9 4.4 63.9-4.5l0.7-0.3c21.7-8.1 33.7-12.6 60.8-42.8 4.5-7.6 24.9-37.3 79.8-55.4 53-22.1 87.7-13.1 96-10.4 40.8 5.3 53.2 0.7 75.4-7.6 23.8-8.9 76.6-36 54.1-96.6-8.9-23.8-31.7-43.3-78.1-79.1l-0.1-0.1c-3.8-3-94.7-73.1-156.9-100.9-37.7-16.7-83.7-2-90 0.1zM352.7 441.8c-18.4 0-37.7-7.1-56.2-21-25.1-18.8-46-48.2-58.9-82.8-12.9-34.6-16.3-70.5-9.6-101.1 7.1-32.6 24.7-55.7 49.6-65 24.9-9.3 53.3-3.3 80 16.7 25.1 18.8 46 48.2 58.9 82.8 12.9 34.6 16.3 70.5 9.6 101.1-7.1 32.6-24.7 55.7-49.6 65-7.6 2.9-15.6 4.3-23.8 4.3z m-51.2-249.1c-5.2 0-10.3 0.9-15.1 2.7-16.6 6.2-28.7 22.8-33.9 46.9-5.7 26-2.6 57 8.6 87.1 11.2 30.1 29.1 55.5 50.4 71.5 19.7 14.8 39.7 19.5 56.3 13.3 16.6-6.2 28.7-22.8 33.9-46.9 5.7-26 2.6-57-8.6-87.1-11.2-30.1-29.1-55.5-50.4-71.5-14-10.6-28.2-16-41.2-16zM279 609.5h-2c-25.9-0.5-54.1-10-79.4-26.9-25.3-16.9-44.9-39.2-55.3-63-11.2-25.6-10.5-50 1.9-68.6 12.4-18.6 34.7-28.6 62.6-28.1 25.9 0.5 54.1 10 79.4 26.9 25.3 16.9 44.9 39.2 55.3 63 11.2 25.6 10.5 50-1.9 68.6-12.1 18.1-33.6 28.1-60.6 28.1z m-74.2-161.6c-17.5 0-32.1 5.6-39.7 17-7.5 11.3-7.5 27.2 0.2 44.7 8.5 19.4 24.9 37.9 46.2 52.2 41.7 27.8 90.8 30.4 107.3 5.7s-4.8-69.1-46.4-96.9c-22.4-15-47.1-22.7-67.6-22.7zM533.8 342.3c-18.4 0-37.7-7.1-56.2-21-25.1-18.8-46-48.2-58.9-82.8-12.9-34.6-16.3-70.5-9.6-101.1 7.1-32.6 24.7-55.7 49.6-65 24.9-9.3 53.3-3.3 80 16.7 25.1 18.8 46 48.2 58.9 82.8 12.9 34.6 16.3 70.5 9.6 101.1-7.1 32.6-24.7 55.7-49.6 65-7.6 2.9-15.6 4.3-23.8 4.3zM482.5 93.1c-5.2 0-10.3 0.9-15.1 2.7-16.6 6.2-28.7 22.8-33.9 46.9-5.7 26-2.6 57 8.6 87.1 11.2 30.1 29.1 55.5 50.4 71.5 19.7 14.8 39.7 19.5 56.3 13.3 16.6-6.2 28.7-22.8 33.9-46.9 5.7-26 2.6-57-8.6-87.1-11.1-30.2-29-55.6-50.3-71.6-14.1-10.5-28.3-15.9-41.3-15.9zM703.7 456.4c-3.6 0-7.2-0.3-10.7-1-22-4.2-39.9-20.8-50.3-46.7-9.7-24-11.9-53.7-6.2-83.6 5.7-29.9 18.6-56.6 36.5-75.4 19.2-20.3 41.9-29.1 63.9-24.9 22 4.2 39.9 20.8 50.3 46.7 9.7 24 11.9 53.7 6.2 83.6-5.7 29.8-18.6 56.6-36.5 75.4-16.2 16.9-34.7 25.9-53.2 25.9z m22.6-207.6c-11.7 0-23.9 6.3-35.2 18.1-14.6 15.4-25.2 37.7-30.1 62.9-4.8 25.2-3.1 49.9 4.8 69.6 7.1 17.8 18.4 28.9 31.8 31.5 2 0.4 3.9 0.6 5.9 0.6 27.5 0 56.5-35.2 65.3-81.1 4.8-25.2 3.1-49.9-4.8-69.5-7.1-17.8-18.4-28.9-31.8-31.5-2-0.5-3.9-0.6-5.9-0.6z" fill="#1cd4f5" p-id="38713"></path></svg>