<svg t="1626665717989" class="icon" viewBox="0 0 1024 1024" version="1.1" xmlns="http://www.w3.org/2000/svg" p-id="31653" width="200" height="200"><path d="M759.808 536.576c0 32.768 30.72 57.344 61.44 55.296 32.768 0 57.344-30.72 55.296-61.44-2.048-30.72-30.72-57.344-61.44-55.296s-57.344 30.72-55.296 61.44zM319.488 196.608c2.048 55.296 51.2 98.304 106.496 96.256 55.296-2.048 98.304-51.2 96.256-106.496S471.04 88.064 415.744 90.112c-55.296 2.048-100.352 49.152-96.256 106.496zM583.68 294.912c2.048 43.008 38.912 77.824 83.968 75.776 43.008-2.048 77.824-38.912 75.776-83.968-2.048-43.008-38.912-77.824-83.968-75.776-47.104 4.096-79.872 40.96-75.776 83.968zM530.432 831.488C415.744 956.416 266.24 1003.52 194.56 940.032 122.88 876.544 139.264 692.224 290.816 657.408c178.176-43.008 239.616-233.472 311.296-167.936s38.912 219.136-71.68 342.016z" fill="#FFE5DF" p-id="31654"></path><path d="M417.792 96.256c16.384 0 32.768 4.096 47.104 14.336 20.48 12.288 34.816 32.768 40.96 57.344 6.144 24.576 2.048 49.152-10.24 69.632-16.384 26.624-47.104 43.008-77.824 43.008-16.384 0-32.768-4.096-47.104-14.336-43.008-26.624-57.344-83.968-30.72-126.976 16.384-26.624 45.056-43.008 77.824-43.008m0-40.96c-45.056 0-88.064 22.528-112.64 63.488-38.912 61.44-18.432 143.36 43.008 182.272 22.528 14.336 45.056 20.48 69.632 20.48 45.056 0 88.064-22.528 112.64-63.488 38.912-61.44 18.432-143.36-43.008-182.272-22.528-14.336-45.056-20.48-69.632-20.48zM663.552 229.376c12.288 0 22.528 4.096 32.768 10.24 14.336 8.192 24.576 22.528 28.672 38.912 4.096 16.384 2.048 32.768-8.192 47.104-12.288 18.432-30.72 28.672-53.248 28.672-12.288 0-22.528-4.096-32.768-10.24-14.336-8.192-24.576-22.528-28.672-38.912-4.096-16.384-2.048-32.768 8.192-47.104 12.288-16.384 30.72-28.672 53.248-28.672m0-40.96c-34.816 0-67.584 18.432-88.064 49.152-30.72 49.152-14.336 112.64 32.768 141.312 16.384 10.24 34.816 16.384 53.248 16.384 34.816 0 67.584-18.432 88.064-49.152 30.72-49.152 14.336-112.64-32.768-141.312-16.384-10.24-34.816-16.384-53.248-16.384zM819.2 516.096c4.096 0 10.24 2.048 14.336 4.096 12.288 8.192 16.384 22.528 8.192 34.816-4.096 8.192-12.288 12.288-22.528 12.288-4.096 0-10.24-2.048-14.336-4.096-12.288-8.192-16.384-22.528-8.192-34.816 6.144-6.144 14.336-12.288 22.528-12.288m0-40.96c-22.528 0-45.056 10.24-57.344 30.72-18.432 30.72-10.24 71.68 22.528 92.16 10.24 6.144 22.528 10.24 34.816 10.24 22.528 0 45.056-10.24 57.344-30.72 18.432-30.72 10.24-71.68-22.528-92.16-10.24-6.144-22.528-10.24-34.816-10.24zM485.376 456.704c34.816 0 63.488 10.24 86.016 30.72 69.632 65.536 36.864 212.992-73.728 329.728-73.728 79.872-165.888 124.928-237.568 124.928-34.816 0-63.488-10.24-86.016-30.72-69.632-65.536-36.864-212.992 71.68-329.728 75.776-79.872 165.888-124.928 239.616-124.928m0-40.96c-88.064 0-188.416 51.2-268.288 137.216-126.976 137.216-159.744 307.2-71.68 389.12 28.672 26.624 67.584 40.96 114.688 40.96 88.064 0 188.416-51.2 268.288-137.216 126.976-135.168 157.696-305.152 71.68-387.072-30.72-28.672-69.632-43.008-114.688-43.008z" fill="#FF7B61" p-id="31655"></path></svg>