<?xml version="1.0" standalone="no"?><!DOCTYPE svg PUBLIC "-//W3C//DTD SVG 1.1//EN" "http://www.w3.org/Graphics/SVG/1.1/DTD/svg11.dtd"><svg t="1654053900480" class="icon" viewBox="0 0 1024 1024" version="1.1" xmlns="http://www.w3.org/2000/svg" p-id="1533" xmlns:xlink="http://www.w3.org/1999/xlink" width="200" height="200"><defs><style type="text/css">@font-face { font-family: feedback-iconfont; src: url("//at.alicdn.com/t/font_1031158_u69w8yhxdu.woff2?t=1630033759944") format("woff2"), url("//at.alicdn.com/t/font_1031158_u69w8yhxdu.woff?t=1630033759944") format("woff"), url("//at.alicdn.com/t/font_1031158_u69w8yhxdu.ttf?t=1630033759944") format("truetype"); }
</style></defs><path d="M926.293333 865.706667l-768-768-60.586666 60.586666 167.253333 166.826667A270.506667 270.506667 0 0 0 256 392.533333V682.666667H170.666667v85.333333h213.333333a128 128 0 0 0 256 0h67.84l157.866667 158.293333zM512 810.666667a42.666667 42.666667 0 0 1-42.666667-42.666667h85.333334a42.666667 42.666667 0 0 1-42.666667 42.666667z m-170.666667-128V401.493333L622.506667 682.666667zM512 213.333333a174.933333 174.933333 0 0 1 170.666667 179.2V512l85.333333 85.333333V392.533333A260.693333 260.693333 0 0 0 512 128a246.186667 246.186667 0 0 0-157.013333 56.32l60.586666 60.586667A162.133333 162.133333 0 0 1 512 213.333333z" p-id="1534"></path></svg>