<svg t="1638519721320" class="icon" viewBox="0 0 1024 1024" version="1.1" xmlns="http://www.w3.org/2000/svg" p-id="5084" width="200" height="200"><path d="M0 0h1024v1024H0V0z" fill="#202425" opacity=".01" p-id="5085"></path><path d="M24.132267 748.202667a34.133333 34.133333 0 0 1 0-48.264534L699.972267 24.132267a34.133333 34.133333 0 0 1 48.2304 0l193.092266 193.092266a34.133333 34.133333 0 0 1 0 48.264534l-675.805866 675.84a34.133333 34.133333 0 0 1-48.264534 0L24.132267 748.202667z" fill="#FFAA44" p-id="5086"></path><path d="M251.357867 58.2656a34.133333 34.133333 0 0 0-48.264534 0L58.2656 203.093333a34.133333 34.133333 0 0 0 0 48.264534l434.449067 434.449066a34.133333 34.133333 0 0 0 48.264533 0l144.827733-144.827733a34.133333 34.133333 0 0 0 0-48.264533L251.357867 58.2656zM785.066667 460.8a51.2 51.2 0 0 1 51.2 51.2 324.266667 324.266667 0 0 1-324.266667 324.266667 51.2 51.2 0 1 1 0-102.4 221.866667 221.866667 0 0 0 221.866667-221.866667 51.2 51.2 0 0 1 51.2-51.2z m170.666666 0a51.2 51.2 0 0 1 51.2 51.2c0 273.339733-221.5936 494.933333-494.933333 494.933333a51.2 51.2 0 1 1 0-102.4c216.7808 0 392.533333-175.752533 392.533333-392.533333a51.2 51.2 0 0 1 51.2-51.2z" fill="#11AA66" p-id="5087"></path></svg>