<svg t="1626592373613" class="icon" viewBox="0 0 1024 1024" version="1.1" xmlns="http://www.w3.org/2000/svg" p-id="10928" width="200" height="200"><path d="M959.658667 454.485333c-1.024-18.773333-5.632-37.205333-8.704-55.808-5.802667 13.653333-8.704 27.136-11.434667 40.789334C916.992 549.546667 841.898667 614.058667 729.258667 621.226667c-9.557333 0.682667-20.992 6.485333-27.477334 13.653333-23.381333 25.770667-36.352 30.549333-68.437333 17.066667-19.797333-8.192-38.912-12.8-60.928-8.192-30.378667 6.314667-44.885333-1.024-58.026667-29.525334-9.728-21.162667-24.917333-32.426667-46.250666-38.912-55.466667-16.725333-94.037333-53.589333-114.005334-107.178666-38.912-104.448-12.288-198.656 49.152-286.208 6.485333-9.045333 14.848-13.994667 26.282667-8.362667 15.36 7.68 28.330667 1.706667 40.96-6.656 23.893333-15.701333 48.128-30.549333 71.509333-46.933333 6.656-4.608 13.994667-12.288 15.701334-19.797334 8.533333-39.424-30.890667-95.061333-70.826667-98.986666-43.178667-4.949333-74.752 16.554667-96.938667 51.712-18.261333 28.672-15.36 58.368 3.242667 86.186666 8.021333 11.946667 7.338667 20.309333-4.608 28.672-10.922667 7.68-20.821333 16.725333-31.061333 25.258667-66.048 56.490667-100.864 128-103.424 214.869333-0.853333 26.624 0.512 53.589333-2.218667 80.042667-4.608 46.421333-10.581333 92.330667 5.290667 137.898667 1.536 4.266667 2.218667 8.704 2.56 13.141333 1.024 13.141333-5.12 16.213333-16.213334 10.581333-4.608-2.218667-8.704-5.290667-12.8-8.192-40.277333-28.501333-67.242667-67.413333-86.869333-111.786666-49.152-110.933333-45.226667-217.429333 28.672-317.44 10.410667-13.994667 22.698667-26.453333 34.133333-39.424-47.274667 24.746667-80.725333 63.317333-106.154666 108.544-29.184 52.053333-44.714667 108.373333-41.130667 168.448 4.266667 72.192 5.973333 144.896 17.578667 216.064 7.850667 48.810667 28.330667 96.085333 47.104 142.336 23.381333 57.173333 65.706667 90.794667 130.56 90.624 51.882667-0.170667 62.976-14.848 48.298666-63.829334-6.485333-21.845333-11.093333-44.373333-14.677333-66.901333-1.024-6.144 4.608-13.312 6.997333-19.968 5.12 4.949333 11.946667 9.045333 15.018667 15.018667 10.410667 21.162667 19.285333 43.008 29.184 64.341333 26.112 55.466667 50.346667 112.810667 100.864 152.405333 55.637333 43.690667 117.418667 55.125333 184.661333 33.621334 25.088-8.021333 29.696-18.090667 18.432-41.642667-18.090667-37.888-27.818667-77.653333-31.914666-119.125333-3.925333-38.4-3.413333-76.970667 16.725333-111.274667 6.314667-10.581333 20.138667-21.504 31.573333-23.04 15.36-2.048 24.917333 14.336 26.112 28.16 2.901333 33.28 4.096 66.901333 2.901334 100.181333-1.024 25.770667-9.045333 51.370667-10.24 77.141334-1.365333 32.426667 19.285333 57.173333 47.445333 55.466666 52.565333-3.584 99.669333-20.309333 127.317333-70.314666 25.770667-46.933333 46.592-95.573333 63.829334-146.432 34.304-100.352 48.469333-202.752 42.496-308.053334zM915.968 64.512c-25.429333-15.701333-53.248-17.92-79.872-3.413333-26.624 14.506667-41.472 38.058667-48.128 72.021333-0.341333 1.706667 0 3.413333 0.853333 4.949333 3.584 5.802667 7.68 14.165333 13.994667 19.797334 21.845333 19.114667 46.08 35.669333 66.901333 55.466666 15.018667 14.336 30.208 16.384 46.421334 6.997334 23.210667-13.482667 40.277333-33.109333 46.762666-59.904 8.704-34.816-9.557333-72.874667-46.933333-95.914667z" p-id="10929"></path><path d="M776.704 372.565333c-17.066667-8.874667-35.328-10.410667-49.493333 3.754667-15.872 16.042667-34.304 35.328-26.453334 59.392 8.874667 27.306667 23.722667 53.248 38.229334 78.165333 4.096 7.168 12.8 11.776 18.432 15.018667 2.56 1.536 5.461333 2.218667 8.362666 1.877333 22.698667-1.877333 36.522667-9.216 46.08-23.552 26.624-39.936 7.68-112.298667-35.157333-134.656z m-213.845333-11.093333c-10.410667-22.869333-31.402667-31.744-54.954667-23.893333-39.936 13.482667-66.048 50.005333-66.048 92.501333 0 30.549333 12.8 52.224 34.986667 59.392 21.333333 6.826667 38.570667-1.536 58.538666-28.330667 5.290667-7.168 10.069333-15.018667 16.725334-20.650666 26.965333-23.381333 23.722667-50.346667 10.752-79.018667z m86.869333 205.312c-19.797333-4.949333-40.106667-8.021333-61.610667-11.776-2.048-0.341333-4.096-0.341333-6.144 0.341333-6.826667 1.877333-14.506667 3.242667-20.992 6.997334-8.192 4.608-9.045333 13.141333 0.170667 17.92 27.818667 14.336 54.101333 40.277333 88.405333 14.336 1.536-1.194667 3.072-2.389333 4.437334-3.584 7.168-5.802667 7.168-16.896-0.341334-22.357334-1.194667-0.853333-2.56-1.536-3.925333-1.877333z" p-id="10930"></path></svg>