<svg t="1626666610169" class="icon" viewBox="0 0 1024 1024" version="1.1" xmlns="http://www.w3.org/2000/svg" p-id="46314" width="200" height="200"><path d="M885.76 681.536c-13.76-11.168-33.92-8.896-44.96 4.832-11.104 13.76-8.928 33.92 4.832 44.96 22.4 18.08 52.48 71.776 52.48 101.984 0 54.016-43.904 97.952-97.92 97.952-31.776 0-61.728-15.488-80.096-41.504-2.208-3.136-61.536-88.672-96.192-125.696-61.088-65.216-163.52-61.568-163.904-61.632-129.76-26.752-218.656-132.032-202.4-239.744 8.064-53.728 40.96-100.736 92.64-132.448 53.44-32.736 120.192-45.184 188-34.976 67.712 10.208 127.84 41.728 169.28 88.768 40.064 45.504 57.664 100.128 49.536 153.92-3.072 20.576-9.856 40.352-20.224 58.816-8.672 15.392-3.2 34.912 12.256 43.552 15.328 8.608 34.912 3.2 43.552-12.256 14.176-25.248 23.488-52.416 27.712-80.672 10.976-72.704-12.064-145.76-64.8-205.696-51.392-58.336-125.184-97.344-207.776-109.76C465.184 219.552 383.104 235.04 316.8 275.68c-68.096 41.728-111.584 104.768-122.496 177.472-21.344 141.312 89.696 278.336 252.768 311.968 2.176 0.448 89.216-0.96 130.112 42.688 35.808 38.24 90.528 121.344 94.56 123.776 30.528 39.872 77.984 63.648 128.416 63.648 89.28 0 161.92-72.672 161.92-161.952C962.08 781.632 921.792 710.528 885.76 681.536z" fill="#1296db" p-id="46315"></path><path d="M128.416 320.864m-64 0a2 2 0 1 0 128 0 2 2 0 1 0-128 0Z" fill="#1296db" p-id="46316"></path><path d="M272.864 228.256c-10.976 0-21.984-3.712-30.944-11.328C221.92 199.904 219.136 170.112 235.936 149.92c3.968-4.736 98.688-115.68 277.184-79.968 25.984 5.184 42.848 30.464 37.664 56.48s-30.496 42.976-56.48 37.664c-120.8-24.192-182.304 44.672-184.864 47.584C299.904 222.624 286.4 228.256 272.864 228.256z" fill="#1296db" p-id="46317"></path></svg>