<svg t="1627716541843" class="icon" viewBox="0 0 1024 1024" version="1.1" xmlns="http://www.w3.org/2000/svg" p-id="4266" width="200" height="200"><path d="M881.8 55.2S908 78.7 922.4 124c19.2 60.4 22.6 152.4-34.7 209-100.3 99-210.3-211-210.3-211s94-83 204.4-66.8zM141.6 56.2S115.4 79.7 101 125c-19.2 60.4-22.6 152.4 34.7 209C236 433 346 123 346 123s-94-83-204.4-66.8z" fill="#D57F48" p-id="4267"></path><path d="M511.6 532.8m-409.2 0a409.2 409.2 0 1 0 818.4 0 409.2 409.2 0 1 0-818.4 0Z" fill="#FFB27F" p-id="4268"></path><path d="M532.7 509.7m-386.1 0a386.1 386.1 0 1 0 772.2 0 386.1 386.1 0 1 0-772.2 0Z" fill="#FFD5AB" p-id="4269"></path><path d="M512.5 88C266.9 88 67.7 287.1 67.7 532.8s199.2 444.8 444.8 444.8 444.8-199.2 444.8-444.8S758.2 88 512.5 88z m0 854c-226 0-409.2-183.2-409.2-409.2s183.2-409.2 409.2-409.2 409.2 183.2 409.2 409.2S738.5 942 512.5 942z" fill="#D57F48" p-id="4270"></path><path d="M855.2 564.9a35.6 35.6 0 0 0-71.1 0M240.6 564a35.6 35.6 0 0 0-71.1 0z" fill="#FBA783" p-id="4271"></path><path d="M296.5 460.5m-50.5 0a50.5 50.5 0 1 0 101 0 50.5 50.5 0 1 0-101 0Z" fill="#793A08" p-id="4272"></path><path d="M728.5 460.5m-50.5 0a50.5 50.5 0 1 0 101 0 50.5 50.5 0 1 0-101 0Z" fill="#793A08" p-id="4273"></path><path d="M162.8 96.5s-18.9 16.9-29.3 49.5c-13.8 43.5-16.3 109.8 25 150.6C230.7 367.9 349 187 349 187S283 83 162.8 96.5z" fill="#FFB27F" p-id="4274"></path><path d="M237 103s-45 32-56 88c-15.1 76.9 9.1 137.5 42 170 57.6 56.9 144-143 144-143s-27-77-130-115z" fill="#FFD5AB" p-id="4275"></path><path d="M512 124s-218-7-280 155h280zM860.6 96.5s18.9 16.9 29.3 49.5c13.8 43.5 16.3 109.8-25 150.6C792.6 367.9 674.4 187 674.4 187s66-104 186.2-90.5z" fill="#FFD5AB" p-id="4276"></path><path d="M787.4 103s45 32 56 88c15.1 76.9-9.1 137.5-42 170-57.6 56.9-144-143-144-143s27-77 130-115z" fill="#FFD5AB" p-id="4277"></path><path d="M706 647.5a117.5 117.5 0 0 0-111-117.3v-0.2H438.5a117.5 117.5 0 0 0 0 235H595v-0.2a117.5 117.5 0 0 0 111-117.3z" fill="#D57F48" p-id="4278"></path><path d="M588.5 570H441a77.5 77.5 0 0 0 0 154.8h147.5a77.5 77.5 0 0 0 0-155z" fill="#FFB27F" p-id="4279"></path><path d="M601.4 699h-84.8c-55.6 0-84.6-43-84.6-84.6v-42.6a2 2 0 0 1 2-2h152.4c35.5 0 68.6 21.2 79.6 64.6a64.8 64.8 0 0 1-64.6 64.6z" fill="#FFD5AB" p-id="4280"></path><path d="M435 597l35 0 0 101-35 0 0-101Z" fill="#D57F48" p-id="4281"></path><path d="M555 597l35 0 0 101-35 0 0-101Z" fill="#D57F48" p-id="4282"></path></svg>