<svg t="1628153442542" class="icon" viewBox="0 0 1024 1024" version="1.1" xmlns="http://www.w3.org/2000/svg" p-id="7505" width="200" height="200"><path d="M758.81 389.64a2286.152 2286.152 0 0 1-231.34 76.87c12.56-35.75 24.91-71.48 36.74-107.35 0.38 0.25 0.88 0.33 1.47 0.11 20.31-7.79 38.06-16.65 60.03-19.41 2.4-0.3 2.43-4.11 0-3.8-22.04 2.77-39.95 11.4-60.23 19.23 17.97-54.69 34.71-109.73 49.09-165.73 0.61-2.37-3.06-3.38-3.67-1.01-19.95 77.71-44.44 153.58-70.48 229.22-14.3-12.86-27.93-26.47-41.43-40.2 2.03-6.6 7.2-12.59 10.34-18.72 4.61-9.02 8.61-18.3 12.19-27.77 0.87-2.29-2.81-3.28-3.67-1.01-4.13 10.93-8.73 21.92-14.56 32.08-2.36 4.11-5.43 8.02-7.25 12.44-8.76-8.92-17.49-17.87-26.33-26.67-10.32-10.26-23.5-19.83-32.54-31.17-8.55-10.72-5.65-29.86-4.44-42.71 1.3-13.79 4.18-27.21 8.15-40.46 0.7-2.35-2.97-3.35-3.67-1.01-6.83 22.81-11.9 49.34-8.68 73.23 2.08 15.42 18.87 25.52 29.33 35.75 27.1 26.52 52.77 54.69 81.04 79.99 0.06 0.05 0.13 0.07 0.19 0.11-5.22 15.12-10.49 30.23-15.8 45.35-0.11 0.3-0.2 0.61-0.31 0.91-0.69 0.47-0.9 1.29-0.69 2.03-2.22 6.45-4.28 12.92-6.22 19.41-5.55-6.1-7.82-12.46-11.15-19.92-2.49-5.57-6.47-10.28-8.8-15.94-0.92-2.23-4.6-1.25-3.67 1.01 2.94 7.13 7.63 13.22 10.51 20.41 2.68 6.69 5.93 12.42 10.9 17.69 0.34 0.36 0.71 0.49 1.08 0.54-10.97 37.9-17.5 76.49-23.3 115.77-0.64 4.36-1.29 8.72-1.93 13.08-29.6-71.64-64.9-140.71-105.57-206.58 0.02-0.04 0.06-0.06 0.08-0.1 4.41-9.06 9.02-18.01 13.92-26.82 1.93-3.46 3.72-7.15 5.98-10.41 1.84-2.66 3.71-4.15 4.43-7.33 0.5-2.19-2.22-3.17-3.47-1.46-1.31 1.78-2.62 3.57-3.94 5.35-0.42 0.57-0.41 1.12-0.2 1.58-0.42 0.58-0.81 1.13-1.1 1.6-2.37 3.78-4.46 7.78-6.61 11.69-3.99 7.28-7.77 14.67-11.42 22.13-15.97-25.69-32.74-50.91-50.33-75.58-1.41-1.98-4.71-0.08-3.28 1.92a1436.644 1436.644 0 0 1 106.14 173.67c-36.17-7.55-73.19-12.4-110.18-12.62-0.02-10.57-2.89-20.91-8.16-30.04-9.9-17.14-18.62-34.09-25.04-52.91-0.79-2.3-4.46-1.31-3.67 1.01 5.02 14.71 11.13 28.94 18.71 42.51 7.29 13.06 14.26 24.18 14.37 39.41-1.62 0-3.25-0.04-4.87-0.02-2.44 0.03-2.45 3.84 0 3.8 1.88-0.03 3.75 0.02 5.63 0.02 0.62 0.39 1.47 0.4 2.13 0.01 37.81 0.15 75.63 5.14 112.56 12.99 0.25 0.05 0.47 0.04 0.69 0.01 18.83 36.66 36.09 74.15 51.7 112.36 0.12 0.29 0.29 0.52 0.48 0.71L469.7 757.53c-0.35 2.39 3.31 3.43 3.67 1.01 7.31-49.54 14.63-99.08 21.94-148.63 2.91-19.7 6.01-39.22 9.76-58.58 44.57-5.43 89.55-7.26 134.42-5.71 2.45 0.08 2.44-3.72 0-3.8-11.88-0.41-23.76-0.57-35.65-0.5 11.63-15.83 24.4-30.93 39.25-43.85 13.61-11.84 28.41-22.02 40.63-35.4 1.65-1.8-1.03-4.5-2.69-2.69-13.21 14.47-29.51 25.21-43.93 38.34-14.17 12.89-26.4 27.72-37.66 43.18-0.12 0.16-0.16 0.32-0.22 0.48-31.21 0.34-62.41 2.32-93.4 6.06 5.12-25.83 11.48-51.35 20.16-76.55 53.14-14.5 105.71-30.95 157.64-49.25 0.17 0.15 0.36 0.29 0.61 0.38 22.17 8.31 43.05 19.27 63.05 31.88 2.08 1.31 3.99-1.98 1.92-3.28-19.17-12.09-39.21-22.61-60.32-30.84 23.78-8.44 47.45-17.23 70.95-26.46 2.24-0.9 1.26-4.57-1.02-3.68z" fill="#6C4C40" p-id="7506"></path><path d="M294.7 436.34c1.36 0.46 2.75 0.92 4.18 1.34v0.01l0.14 0.52c0.07 0.06 0.11 0.16 0.13 0.29-0.01 0.23 0.1 0.66-0.29 0.57-0.05 0.21 0.31 0.44 0.56 0.35 0.26-0.04 0.47-0.14 0.68-0.28 0.19-0.14 0.38-0.34 0.51-0.6l0.24-0.32c0.39 0.1 0.76 0.2 1.16 0.29 0.77 0.17 1.37-0.7 0.95-1.37-0.23-0.37-0.49-0.72-0.74-1.07 0.64-1.14 1.16-2.31 1.61-3.49 0.94-2.53 1.53-5.08 1.91-7.61s0.53-5.04 0.52-7.6c-0.03-2.1-0.14-4.2-0.49-6.52-0.11-0.73-1.03-1-1.55-0.48-1.69 1.69-2.87 3.69-3.8 5.73-1.12 2.53-1.82 5.15-2.19 7.77a36.03 36.03 0 0 0-0.29 7.55c-0.08-0.07-0.16-0.15-0.24-0.22a33.45 33.45 0 0 0-8.32-5.06 32.938 32.938 0 0 0-9.42-2.48c-2.62-0.26-5.29-0.25-7.97 0.33-0.77 0.17-0.99 1.2-0.33 1.64 2.25 1.49 4.45 2.65 6.64 3.78 2.71 1.36 5.39 2.59 8.1 3.73 2.7 1.12 5.44 2.2 8.3 3.2zM287.61 413.38c1.57-1.23 2.69-2.67 3.63-4.18 1.12-1.85 1.9-3.82 2.37-5.87s0.63-4.17 0.43-6.32c-0.19-1.77-0.58-3.56-1.47-5.35-0.3-0.6-1.1-0.71-1.53-0.2-1.29 1.52-2.15 3.03-2.9 4.56-0.88 1.85-1.51 3.71-1.94 5.62s-0.67 3.86-0.68 5.9c0.01 1.69 0.13 3.43 0.62 5.35 0.18 0.65 0.94 0.91 1.47 0.49zM301.58 459.01c2.17-0.08 4.43-0.17 6.84-0.65 0.66-0.13 0.93-0.87 0.6-1.39 1.3-0.74 2.46-1.59 3.56-2.49 1.87-1.57 3.5-3.32 4.93-5.22s2.64-3.96 3.62-6.19c0.78-1.84 1.43-3.77 1.73-5.96a0.914 0.914 0 0 0-1.29-0.96c-2.02 0.91-3.69 2.08-5.23 3.34-1.87 1.57-3.5 3.32-4.92 5.22a31.02 31.02 0 0 0-3.61 6.2c-0.55 1.31-1.04 2.67-1.38 4.13-1.19-0.74-2.43-1.37-3.73-1.9-2.65-1.1-5.85-1.66-8.55-1.75-2.78-0.11-4.63-0.12-7.47-0.41-1.39-0.09-2.91-0.18-4.49 0.03-0.97 0.15-1.96 0.37-2.87 0.77a0.903 0.903 0 0 0-0.04 1.64c2.1 1.03 3.67 2.24 5.75 3.31 1.24 0.66 2.66 1.25 4.26 1.65 1.57 0.38 3.08 0.52 4.48 0.6 2.78 0.12 5.07 0.07 7.81 0.03zM324.1 458.62c-1.7 0.81-2.91 1.78-4.05 2.62-1.37 0.97-2.63 1.96-3.85 3.16-1.21 1.19-2.41 2.57-3.42 4.22-0.53 0.89-1 1.84-1.39 2.88-0.51-0.43-1.07-0.84-1.64-1.2-1.86-1.16-3.89-1.94-6-2.34s-4.29-0.42-6.44-0.01c-1.77 0.36-3.53 0.97-5.17 2.1a0.916 0.916 0 0 0 0.03 1.53c1.65 1.06 3.2 1.74 4.72 2.33 1.84 0.69 3.63 1.19 5.46 1.52s3.67 0.53 5.64 0.56c0.99 0 1.96-0.02 3.16-0.13 0.78-0.1 1.65-0.23 2.43-0.58 0.48-0.21 0.58-0.78 0.34-1.22 1.01-0.26 1.94-0.59 2.83-0.99 1.74-0.8 3.33-1.84 4.77-3.23 1.43-1.37 2.67-3.11 3.44-5.15 0.56-1.72 0.72-3.51 0.47-5.41-0.1-0.59-0.78-0.92-1.33-0.66zM341.28 488.44c-0.56-0.77-1.23-1.51-1.88-2.05-0.68-0.58-1.32-1.04-1.89-2.13-1.11 0.62-1.51 2.01-1.71 3.12-0.16 1.18-0.18 2.09-0.18 3 0.04 1.83 0.33 3.56 0.85 5.22 0.38 1.22 0.88 2.39 1.51 3.54-1.65 0.23-3.2 0.63-4.68 1.2-1.62 0.68-2.95 1.23-4.98 2.8-0.94 0.77-1.94 2-2.22 3.35-0.23 1.33-0.01 2.38 0.51 3.49 1.07-0.59 1.85-1.26 2.61-1.43 0.7-0.17 1.17-0.06 1.82-0.08 1.2 0.02 3.35-0.34 5.02-1.04 1.74-0.68 3.36-1.65 4.8-2.94 0.27-0.25 0.53-0.5 0.79-0.77 0.74 0.43 1.76 0.11 2.05-0.73 0.51-1.44 0.7-2.83 0.76-4.19 0.06-1.89-0.21-3.71-0.74-5.45-0.51-1.73-1.33-3.38-2.44-4.91zM371.99 491.73a24.786 24.786 0 0 0-4.34-4.77c-1.19-0.98-2.46-1.89-3.97-2.63-0.98-0.48-2.14 0.34-2.02 1.42 0.18 1.68 0.6 3.19 1.11 4.63 0.75 2.04 1.76 3.92 2.94 5.64 1.15 1.7 2.3 3.03 3.38 4.41 0.2 0.24 0.4 0.51 0.61 0.81-0.86 0.12-1.7 0.29-2.53 0.49-2.51 0.64-4.87 1.6-7.08 2.85a29.347 29.347 0 0 0-6.11 4.57c-1.31 1.27-2.23 2.54-3.36 3.85-0.8 0.93-0.11 2.35 1.11 2.34 1.95-0.01 3.88-0.64 5.41-1.14 2.36-0.81 4.57-1.82 6.68-3s4.12-2.54 6.05-4.14c0.97-0.83 1.93-1.7 2.85-2.67 0.75 0.16 1.57-0.35 1.69-1.19 0.23-1.56 0.53-2.94 0.31-4.79-0.34-2.62-1.51-4.89-2.73-6.68zM396.97 506.01c0-0.28 0-0.56-0.01-0.84-0.05-1.8-0.25-3.5-0.63-5.19-0.38-1.7-0.92-3.39-1.73-5.12-0.59-1.22-1.27-2.45-2.25-3.67-0.64-0.8-1.93-0.65-2.37 0.27-0.68 1.42-1.05 2.81-1.28 4.22-0.29 1.98-0.22 3.97 0.2 5.93 0.35 1.61 0.96 3.19 1.84 4.65-1.44 0.36-2.79 0.85-4.06 1.47-1.59 0.76-3.06 1.7-4.47 2.86-1.05 0.88-2.07 1.85-3.09 3.12-0.56 0.7-0.25 1.78 0.61 2.04 1.61 0.47 3.17 0.53 4.67 0.41 2-0.19 3.88-0.75 5.59-1.58 1.71-0.84 3.27-1.94 4.64-3.3 0.22-0.22 0.42-0.45 0.63-0.68 0.71 0.05 1.42-0.48 1.51-1.26 0.03-0.29 0.06-0.57 0.08-0.85 0.17-0.27 0.33-0.54 0.49-0.83 0.33-0.6 0.12-1.29-0.37-1.65zM413.92 511.33c-1.34-0.5-2.6-0.58-3.8-0.48-1.54 0.16-2.96 0.68-4.19 1.48s-2.28 1.89-3.04 3.24c-0.57 1.06-1 2.25-1.07 3.69-0.04 0.74 0.57 1.38 1.31 1.38 1.42 0 2.54-0.19 3.57-0.45 1.3-0.35 2.4-0.84 3.4-1.5s1.89-1.48 2.73-2.53c0.64-0.84 1.27-1.78 1.84-3.07 0.29-0.69-0.05-1.5-0.75-1.76zM473.86 581.05c-1.12 0.75-1.99 1.66-2.63 2.7a8.935 8.935 0 0 0-1.24 3.56c-0.04 0.38-0.06 0.77-0.06 1.17a27.25 27.25 0 0 0-5.83-1.31c-2.2-0.24-4.41-0.22-6.66 0.08-1.64 0.24-3.28 0.6-4.99 1.25-0.94 0.36-1.12 1.64-0.31 2.24 1.49 1.1 3.05 1.84 4.61 2.45 2.15 0.81 4.33 1.31 6.53 1.54s4.42 0.21 6.66-0.09c1.64-0.24 3.27-0.6 4.97-1.24 0.94-0.36 1.12-1.65 0.31-2.24-0.21-0.15-0.42-0.28-0.63-0.42 0.16-0.09 0.32-0.19 0.47-0.28 1.12-0.75 1.99-1.66 2.63-2.7 0.65-1.04 1.07-2.22 1.25-3.56 0.15-1.35 0.09-2.83-0.61-4.7-1.98 0.21-3.32 0.82-4.47 1.55zM456.01 557.31c1.06-0.19 2.13-0.45 3.19-0.8 0.42 0.97 0.96 1.88 1.69 2.66 0.72-3.38 1.84-5.87 3.07-8.42 1.22-2.52 2.59-5.02 3.88-7.73 1.32-2.76 2.52-5.83 3.05-9.2 0.51-3.32 0.29-7.15-1.71-10.05-1.19 3.25-2.54 5.66-3.96 8.18-1.41 2.49-2.91 5-4.24 7.82-1.35 2.86-2.47 6.05-2.79 9.52-0.08 0.88-0.09 1.8-0.03 2.72-0.56-0.23-1.12-0.45-1.67-0.64a32.695 32.695 0 0 0-13.13-1.58c-1.65 0.16-3.32 0.41-5.08 0.95-0.97 0.3-1.22 1.59-0.44 2.23 1.44 1.17 2.98 2.01 4.55 2.7 2.17 0.92 4.42 1.51 6.71 1.79 2.26 0.26 4.59 0.23 6.91-0.15zM442.29 538.41c1.55 0.44 3.18 0.61 4.87 0.46 0.82-0.09 1.65-0.24 2.5-0.51 0.54 0.53 1.5 0.48 1.96-0.19 0.98-1.43 1.69-2.81 2.33-4.17 0.84-1.86 1.49-3.68 2-5.54s0.87-3.76 1.08-5.79c0.14-1.5 0.22-3.05 0.09-4.79-0.07-0.96-1.16-1.53-1.96-1-1.51 0.99-2.68 2.24-3.68 3.58a18.128 18.128 0 0 0-2.86 6.02c-0.54 2.02-0.74 4.13-0.58 6.25-1.18-0.73-2.41-1.27-3.68-1.62-1.48-0.41-3.02-0.6-4.66-0.54-1.25 0.07-2.54 0.26-3.96 0.76-0.78 0.28-1.11 1.24-0.66 1.93 0.83 1.27 1.8 2.2 2.82 2.99 1.37 1 2.84 1.72 4.39 2.16zM439.99 522.3c0.45-0.17 0.9-0.37 1.36-0.59-0.03 0.43-0.07 0.85-0.09 1.29 2.89-1.86 4.98-4.45 6.7-7.09 1.7-2.68 3.01-5.43 4.12-8.26 1.11-2.84 1.96-5.77 2.54-8.81 0.55-3.05 0.89-6.18 0.51-9.59-2.58 2.27-4.44 4.81-6.09 7.43-1.62 2.64-2.96 5.38-4.06 8.22s-1.94 5.79-2.54 8.74c-0.23 1.16-0.43 2.33-0.61 3.52-0.59-0.34-1.18-0.61-1.78-0.84-1.55-0.58-3.13-0.83-4.69-0.8-1.57 0.03-3.13 0.34-4.66 0.97-1.16 0.5-2.31 1.15-3.41 2.17-0.6 0.56-0.53 1.54 0.13 2.02 1.22 0.86 2.39 1.37 3.55 1.77 1.53 0.49 3.02 0.7 4.52 0.68 1.5-0.03 2.99-0.3 4.5-0.83zM430.04 486.61c1.53-1.63 2.76-3.46 3.7-5.42 0.95-1.96 1.6-4.07 1.91-6.28 0.21-1.63 0.27-3.31-0.03-5.08-0.16-0.97-1.34-1.4-2.1-0.77-1.36 1.13-2.43 2.34-3.4 3.57a28.57 28.57 0 0 0-3.24 5.29 28.75 28.75 0 0 0-2.07 5.85c-0.19 0.86-0.36 1.73-0.47 2.64-0.37-0.26-0.74-0.49-1.1-0.69-1.12-0.59-2.21-0.93-3.32-1.04s-2.25-0.01-3.46 0.34c-0.97 0.3-1.97 0.71-3.12 1.48a1.32 1.32 0 0 0-0.4 1.77c0.71 1.19 1.57 1.99 2.47 2.62 1.16 0.77 2.43 1.22 3.72 1.36s2.62-0.03 3.92-0.55a8.15 8.15 0 0 0 2.67-1.78c0.12-0.03 0.24-0.07 0.36-0.13 1.56-0.91 2.82-2 3.96-3.18zM408.42 462.28c0.01 0.12 0.01 0.24 0.02 0.36 0.09 0.95 1.18 1.48 1.98 0.97 1.42-0.92 2.56-2 3.58-3.13 1.37-1.56 2.48-3.26 3.35-5.07 0.88-1.81 1.52-3.73 1.88-5.77 0.25-1.51 0.38-3.07 0.21-4.77-0.1-0.95-1.19-1.47-1.99-0.95-1.46 0.95-2.61 2.04-3.64 3.17-1.37 1.55-2.46 3.22-3.32 5.01s-1.48 3.69-1.85 5.72l-0.03 0.22c-0.58-0.46-1.17-0.88-1.77-1.27a22.328 22.328 0 0 0-12.9-3.39c-0.61 0.03-1.23 0.11-1.83 0.23-0.46 0.09-0.91 0.17-1.38 0.24-0.98 0.15-1.41 1.31-0.79 2.08 0.35 0.43 0.73 0.82 1.11 1.18 0.89 0.8 1.73 1.39 2.6 1.96 1.75 1.1 3.59 1.92 5.51 2.5 1.91 0.58 3.9 0.9 5.97 0.93a17.5 17.5 0 0 0 3.29-0.22zM379.47 430.79l0.6 0.63c0.82 0.8 1.69 1.48 2.58 2.11 1.8 1.23 3.72 2.19 5.72 2.91s4.09 1.19 6.27 1.37c0.11 0.01 0.21 0.01 0.32 0.02 0.25 0.5 0.81 0.83 1.4 0.69 0.78-0.18 1.51-0.45 2.18-0.78 0.34-0.04 0.68-0.09 1.03-0.15 0.57-0.11 0.94-0.57 1.02-1.09 1.6-1.2 2.89-2.72 3.84-4.43 0.96-1.72 1.56-3.64 1.72-5.64 0.1-1.51-0.01-3.06-0.56-4.63-0.29-0.83-1.37-1.09-2.04-0.53-1.22 1.03-2.14 2.03-2.99 3.03a25.951 25.951 0 0 0-4.38 7.58c-1.67-1.1-3.41-1.97-5.23-2.61-1.95-0.69-4-1.14-6.16-1.32-1.08-0.08-2.19-0.1-3.35 0l-0.88 0.1-0.64 0.14c-0.23 0.04-0.45 0.04-0.66 0.01-0.22-0.01-0.46-0.09-0.5-0.46-0.35 0.08-0.56 0.6-0.49 1.03 0.06 0.43 0.24 0.79 0.44 1.13 0.18 0.36 0.54 0.67 0.76 0.89zM386.79 392.08a12.5 12.5 0 0 0 3.12 3.3c1 0.71 2.1 1.34 3.52 1.78 0.22 0.07 0.45 0.07 0.66 0.02-0.02 0.29 0.03 0.61 0.15 0.89 0.22 0.58 0.6 1 0.96 1.4 0.84 0.76 1.4 1.15 1.98 1.57 1.2 0.79 2.45 1.28 3.75 1.52s2.64 0.23 4.04-0.08c1.09-0.26 2.21-0.67 3.4-1.45 0.62-0.41 0.77-1.26 0.34-1.86-0.83-1.16-1.73-1.93-2.66-2.57-1.2-0.79-2.45-1.28-3.75-1.51s-2.64-0.22-4.04 0.09c-0.71 0.16-1.47 0.41-1.89 0.76-0.27 0.2-0.5 0.34-0.8 0.5-0.17 0.09-0.39 0.17-0.64 0.14 0.09-0.15 0.16-0.33 0.18-0.51 0.18-1.47 0.05-2.74-0.2-3.94-0.34-1.55-0.94-2.94-1.74-4.2-0.81-1.25-1.84-2.36-3.11-3.31-1-0.71-2.11-1.35-3.53-1.78-0.77-0.23-1.58 0.29-1.67 1.09-0.18 1.48-0.05 2.75 0.19 3.95 0.33 1.57 0.92 2.96 1.74 4.2zM356.8 388.42c1.91 0.08 3.83-0.09 5.78-0.52 0.27-0.06 0.53-0.14 0.8-0.21 0.54 0.24 1.23 0.16 1.65-0.38 0.05-0.07 0.1-0.13 0.15-0.2 0.6-0.22 1.2-0.48 1.81-0.79 0.83-0.43 0.93-1.6 0.19-2.17 0.32-0.54 0.64-1.08 0.94-1.63 1.25-2.35 2.27-4.74 3.09-7.2a45.71 45.71 0 0 0 1.86-7.61c0.26-1.83 0.45-3.71 0.4-5.7-0.03-1.17-1.47-1.77-2.31-0.97-1.46 1.4-2.63 2.94-3.68 4.53a32.02 32.02 0 0 0-3.48 7.34c-0.85 2.56-1.4 5.22-1.61 7.96-0.02 0.28-0.03 0.57-0.04 0.86-1.73-0.55-3.49-0.86-5.26-0.92-1.98-0.07-3.97 0.14-5.94 0.67-1.46 0.42-2.91 0.97-4.34 1.87-0.8 0.5-0.79 1.7 0.01 2.19 1.43 0.88 2.85 1.44 4.26 1.89 1.9 0.61 3.81 0.91 5.72 0.99zM349.53 365.16c0.43 0.27 0.99 0.31 1.46-0.03 1.54-1.11 2.67-2.7 3.54-4.09 1.21-2.01 2.12-3.81 2.95-5.77a42.86 42.86 0 0 0 2.06-6.07c0.38-1.55 0.72-3.14 0.89-4.93 0.1-1.03-1.02-1.81-1.93-1.31-1.63 0.89-2.98 2.05-4.18 3.32a20.983 20.983 0 0 0-3.85 6.03c-0.92 2.17-1.5 4.62-1.62 6.9-0.08 1.23-0.04 2.37-0.01 3.58-1.21-0.74-2.42-1.26-3.63-1.67-1.89-0.6-3.78-0.91-5.68-0.95s-3.81 0.17-5.72 0.68c-1.42 0.4-2.83 0.93-4.26 1.79-0.79 0.48-0.82 1.66-0.05 2.17 1.38 0.93 2.77 1.53 4.17 2 1.89 0.6 3.78 0.91 5.68 0.96s3.81-0.16 5.72-0.67c1.42-0.4 2.84-0.93 4.27-1.8 0.07-0.03 0.13-0.09 0.19-0.14zM497.79 398.85c3.05 0.03 6.09-0.19 9.13-0.71 2.03-0.37 4.06-0.84 6.08-1.57 1.2-0.43 1.21-2.18 0.02-2.64-2.08-0.8-4.16-1.32-6.23-1.75-3.06-0.59-6.12-0.89-9.17-0.93s-6.09 0.18-9.13 0.7c-2.04 0.37-4.07 0.84-6.1 1.58-1.2 0.44-1.21 2.18-0.02 2.64 2.09 0.8 4.17 1.33 6.25 1.76 3.06 0.59 6.12 0.89 9.17 0.92zM517.01 391.76c1.02-1.27 1.82-2.5 2.53-3.79 1-1.84 1.77-3.73 2.33-5.68 0.57-1.95 0.93-3.95 1.07-6.04 0.09-1.48 0.07-2.94-0.11-4.57-0.13-1.12-1.45-1.65-2.33-0.95-1.32 1.04-2.33 2.29-3.2 3.54a20.87 20.87 0 0 0-2.72 5.9c-0.59 2.07-0.89 4.22-0.83 6.44 0.07 1.51 0.25 3.1 0.79 4.68 0.36 1.08 1.76 1.35 2.47 0.47zM492.3 375.53c1.09-0.59 0.94-2.2-0.22-2.61-1.79-0.64-3.6-0.94-5.36-1.16-2.62-0.28-5.2-0.23-7.73 0.07s-5.03 0.85-7.48 1.68c-1.68 0.58-3.31 1.27-4.96 2.17-1.08 0.59-0.94 2.19 0.22 2.61 1.8 0.65 3.62 0.95 5.38 1.17 2.62 0.27 5.2 0.23 7.73-0.08s5.03-0.86 7.48-1.69c1.68-0.58 3.3-1.27 4.94-2.16zM453.62 358.07c-1.03 0.56-0.96 2.06 0.1 2.56 1.59 0.75 3.21 1.18 4.78 1.5 2.32 0.44 4.61 0.57 6.89 0.43 2.27-0.14 4.52-0.53 6.75-1.2 1.54-0.48 3.03-1.07 4.56-1.89 1.03-0.56 0.97-2.06-0.1-2.56-1.59-0.75-3.2-1.17-4.77-1.49-2.32-0.44-4.61-0.57-6.89-0.44-2.27 0.13-4.52 0.52-6.75 1.19-1.54 0.47-3.04 1.07-4.57 1.9zM475.96 353.29c0.14 0.59 0.27 1.14 0.43 1.57 0.11 0.46 0.33 0.93-0.08 1.49 0.67 0.33 1.55-0.22 2.03-0.73 0.55-0.56 0.85-1.07 1.24-1.51 0.71-0.96 1.27-1.96 1.77-2.99 0.96-2.06 1.54-4.24 1.79-6.45s0.15-4.46-0.33-6.69c-0.36-1.55-0.87-3.1-1.71-4.59-0.54-0.95-1.96-0.92-2.47 0.04-0.79 1.48-1.33 2.92-1.79 4.34-0.63 2.03-1.03 4.04-1.25 6.06s-0.26 4.07-0.09 6.19c0.09 1.07 0.23 2.15 0.46 3.27zM441.38 343.48c1.99 0.81 4.05 1.33 6.18 1.53 2.12 0.2 4.32 0.09 6.53-0.45 1.65-0.44 3.47-1.11 4.92-2.38 0.51-0.45 0.46-1.21 0.02-1.67 0.37-0.08 0.71-0.32 0.87-0.71a53.96 53.96 0 0 0 1.79-4.97c0.64-2.14 1.12-4.29 1.4-6.52s0.37-4.53 0.13-6.92c-0.2-1.79-0.55-3.65-1.33-5.49-0.36-0.85-1.56-0.94-2.08-0.17a26.748 26.748 0 0 0-2.52 4.85c-0.86 2.18-1.46 4.43-1.75 6.78-0.29 2.34-0.28 4.78 0.19 7.25 0.36 1.78 0.96 3.63 2.02 5.27-1.27-0.5-2.42-0.95-3.65-1.31-1.92-0.57-3.85-0.96-5.84-1.13-1.99-0.18-4.03-0.17-6.13 0.13-1.59 0.25-3.23 0.61-4.9 1.35-0.81 0.36-0.95 1.49-0.24 2.03 1.43 1.11 2.88 1.89 4.39 2.53zM420.16 312.97c-1.73-0.16-3.61-0.26-5.53 0.17-0.88 0.2-1.17 1.33-0.53 1.98 1.3 1.33 2.56 2.45 3.97 3.43 1.85 1.29 3.81 2.34 5.89 3.14s4.29 1.36 6.63 1.58c1.75 0.11 3.72 0.18 5.64-0.44 0.85-0.27 1.03-1.41 0.36-2-1.39-1.21-2.62-2.29-4.06-3.22a29.132 29.132 0 0 0-5.84-3.02c-2.06-0.79-4.23-1.35-6.53-1.62zM442.94 323.03c1.45-1 2.58-2.12 3.6-3.28 1.32-1.54 2.38-3.18 3.24-4.91s1.51-3.55 1.94-5.49c0.33-1.5 0.53-3.02 0.55-4.78 0.01-0.86-0.89-1.47-1.67-1.11-1.65 0.76-2.97 1.85-4.11 2.99-1.48 1.52-2.64 3.21-3.53 5.02s-1.52 3.75-1.84 5.8c-0.22 1.57-0.31 3.2-0.04 4.95 0.13 0.87 1.14 1.31 1.86 0.81zM412.52 289.01c1.15 1.83 2.53 3.41 4.11 4.78 1.57 1.37 3.35 2.51 5.33 3.37 1.55 0.65 3.22 1.19 5.1 1.33 0.82 0.06 1.42-0.76 1.11-1.52-0.69-1.73-1.54-3.15-2.48-4.48a25.241 25.241 0 0 0-4.09-4.46 25.55 25.55 0 0 0-5.02-3.39c-1.45-0.73-2.98-1.36-4.78-1.79-0.8-0.19-1.52 0.53-1.34 1.33 0.42 1.83 1.19 3.39 2.06 4.83zM446.88 284.24c0.36-0.7-0.12-1.56-0.91-1.61-1.86-0.1-3.58 0.29-5.19 0.9-2.03 0.81-3.85 2.04-5.36 3.58s-2.72 3.37-3.5 5.41c-0.59 1.61-0.96 3.33-0.84 5.18 0.05 0.79 0.92 1.26 1.62 0.89 1.59-0.84 2.85-1.71 4.05-2.59 1.51-1.14 2.83-2.3 4.07-3.55s2.39-2.59 3.5-4.11c0.89-1.21 1.75-2.49 2.56-4.1zM416.94 262.94a19.07 19.07 0 0 0 4.7 4.33c1.44 0.9 3.07 1.71 4.95 2.04 0.79 0.14 1.46-0.62 1.24-1.39-0.49-1.77-1.07-3.24-1.77-4.67-0.89-1.8-1.92-3.45-3.12-4.96a28.764 28.764 0 0 0-4.04-4.23c-1.2-1.02-2.47-1.94-4.02-2.89-0.69-0.42-1.6 0.01-1.68 0.81-0.18 1.9 0.2 3.7 0.71 5.32 0.69 2.09 1.74 3.97 3.03 5.64zM448.08 262.26c-1.71-0.21-3.22-0.07-4.65 0.2-1.8 0.37-3.47 1-5 1.86-1.51 0.84-2.99 1.98-4.15 3.25-1.2 1.23-1.71 2.55-3.61 3.93 0.76 0.97 1.98 1.35 3.14 1.53 1.16 0.14 2.29 0 3.27-0.2 1.92-0.41 3.5-1.01 5.06-1.87 1.54-0.85 2.94-1.93 4.2-3.28 0.99-1.08 1.9-2.29 2.62-3.85 0.31-0.68-0.13-1.48-0.88-1.57zM421.11 236.45c1.09 1.84 2.37 3.48 3.82 4.96s3.09 2.79 4.93 3.9c1.37 0.81 2.83 1.52 4.53 2.04 0.92 0.28 1.82-0.56 1.61-1.5-0.4-1.75-1.07-3.26-1.83-4.68-1.06-1.9-2.34-3.6-3.83-5.1s-3.17-2.81-5.07-3.89c-1.42-0.77-2.96-1.48-4.73-1.86-0.94-0.2-1.73 0.74-1.44 1.66 0.54 1.67 1.22 3.1 2.01 4.47zM443.7 241.12c-1.62 0.91-3.21 1.94-4.7 3.34-0.64 0.6-0.35 1.69 0.51 1.89 1.99 0.46 3.89 0.56 5.74 0.53 2.41-0.07 4.74-0.43 7.01-1.03s4.46-1.46 6.58-2.61c1.63-0.91 3.22-1.94 4.71-3.35 0.64-0.6 0.35-1.68-0.51-1.88-2-0.47-3.9-0.57-5.76-0.54-2.41 0.07-4.74 0.43-7.01 1.04-2.25 0.6-4.45 1.46-6.57 2.61zM735.72 399.9c1.67-0.64 3.02-1.39 4.3-2.17a29.82 29.82 0 0 0 4.38-3.36 30.44 30.44 0 0 0 3.7-4.1c0.88-1.21 1.75-2.49 2.52-4.09 0.36-0.73-0.16-1.62-0.98-1.64-1.82-0.05-3.49 0.34-5.05 0.91-2 0.77-3.8 1.91-5.35 3.32a16.628 16.628 0 0 0-3.76 5.05c-0.7 1.51-1.22 3.14-1.32 4.97-0.03 0.81 0.8 1.4 1.56 1.11zM761.98 406.64c-2.31-1.58-4.74-2.88-7.27-3.94s-5.16-1.89-7.89-2.43c-2.06-0.39-4.16-0.66-6.39-0.6-0.97 0.03-1.46 1.21-0.8 1.92 1.56 1.67 3.24 3 4.97 4.21 2.3 1.58 4.71 2.87 7.22 3.94 2.51 1.06 5.11 1.88 7.84 2.42 2.07 0.39 4.19 0.66 6.46 0.6 0.97-0.03 1.46-1.2 0.81-1.91-1.54-1.67-3.22-3-4.95-4.21zM784.67 391.25c-1.59-1.05-3.17-1.76-4.78-2.34-2.1-0.73-4.23-1.17-6.39-1.34s-4.36-0.08-6.59 0.34c-1.7 0.35-3.46 0.84-5.15 1.79-0.76 0.43-0.74 1.53 0.01 1.97 1.62 0.96 3.17 1.64 4.78 2.18 2.09 0.69 4.2 1.11 6.34 1.29s4.32 0.1 6.53-0.28c1.7-0.32 3.44-0.78 5.17-1.66 0.75-0.38 0.8-1.48 0.08-1.95zM737.68 410.35c-1.97-1.06-4-1.79-6.07-2.25s-4.17-0.67-6.31-0.63c-1.67 0.04-3.29 0.24-5.09 0.63-0.84 0.18-1.21 1.2-0.65 1.84 1.27 1.46 2.81 2.46 4.3 3.31 1.97 1.06 4 1.79 6.07 2.27 2.06 0.47 4.16 0.68 6.31 0.64 1.67-0.04 3.3-0.24 5.11-0.64 0.83-0.18 1.2-1.2 0.65-1.84-1.29-1.47-2.84-2.48-4.32-3.33zM721.29 401.77c0.13-0.45 0.26-1.04 0.28-1.34 0.1-0.76 0.14-1.38 0.16-2.01 0-1.21-0.06-2.36-0.19-3.46-0.27-2.22-0.74-4.36-1.4-6.46-0.64-2.13-1.61-4.08-2.46-6.34-0.86 0.94-1.37 2.14-1.75 3.24-0.44 1.13-0.7 2.24-0.95 3.35-0.45 2.21-0.65 4.39-0.75 6.49-0.1 2.03-0.08 4.34-0.22 5.04-0.18 1.46-0.2 3.01-0.11 5.52 0.02 0.66 0.62 1.16 1.28 1.08 2.61-0.3 4.58-2.03 5.68-4.11 0.16-0.34 0.3-0.56 0.43-1zM690.88 413.9c0.37 0.72 1.37 0.86 1.89 0.24 1.17-1.4 1.85-2.94 2.39-4.43 0.65-1.93 0.97-3.88 1-5.83s-0.21-3.89-0.77-5.83c-0.46-1.5-1.06-3-2.06-4.47-0.46-0.68-1.48-0.66-1.92 0.04-0.94 1.5-1.53 2.96-1.98 4.44-0.56 1.9-0.83 3.79-0.87 5.68s0.16 3.78 0.63 5.68c0.37 1.48 0.89 2.92 1.69 4.48zM661.43 426.46c1.47-0.09 2.63-0.64 3.58-1.26a8.346 8.346 0 0 0 2.52-2.72c0.56-0.99 0.86-2.01 0.98-3.16 0.09-0.98 0.06-2-0.08-3.44-0.05-0.57-0.54-1.01-1.12-1.02-1.47-0.04-2.69 0.45-3.69 1.06a7.94 7.94 0 0 0-2.69 2.8c-0.6 1.04-0.91 2.13-0.99 3.33-0.06 1.02 0.02 2.08 0.3 3.52 0.1 0.55 0.62 0.92 1.19 0.89zM661.18 426.85c-0.76 0.09-1.22 0.9-0.91 1.6 0.67 1.53 1.54 2.71 2.48 3.78 1.23 1.33 2.49 2.4 4.26 3.31 0.88 0.43 1.86 0.81 2.94 1.03 1.12 0.23 2.15 0.23 2.94 0.12 0.82-0.1 1.44-0.29 2.16-0.43 0.76-0.14 1.54-0.23 2.66 0.21 0.47-1.16-0.08-2.47-0.8-3.46-0.77-1-1.82-1.66-2.66-2.15-0.88-0.5-1.53-0.82-2.03-1.14-0.55-0.32-1.14-0.63-1.79-0.97-1.29-0.65-2.96-1.35-4.72-1.69-1.41-0.27-2.87-0.41-4.53-0.21zM633 428.2c-0.19 1.82-0.21 3.61-0.03 5.59 0.08 0.89 1.13 1.38 1.83 0.82 1.61-1.29 2.8-2.85 3.83-4.38a30.24 30.24 0 0 0 3.1-6.31c0.78-2.16 1.33-4.36 1.71-6.61 0.3-1.76 0.42-3.45 0.58-5.39 0.07-0.87-0.87-1.53-1.63-1.1-1.84 1.03-3.24 2.6-4.4 4.1-1.49 2.02-2.59 4.19-3.4 6.42-0.82 2.21-1.34 4.5-1.59 6.86zM633.71 437.17c-0.81 0.13-1.2 1.09-0.74 1.77a27.84 27.84 0 0 0 3.09 3.74c1.39 1.39 2.89 2.61 4.59 3.64 1.69 1.03 3.59 1.88 5.69 2.38 1.63 0.36 3.39 0.56 5.22 0.25 0.81-0.14 1.19-1.1 0.73-1.77a27.293 27.293 0 0 0-3.11-3.74c-1.39-1.38-2.89-2.59-4.59-3.62-1.7-1.02-3.59-1.87-5.68-2.37-1.62-0.38-3.37-0.58-5.2-0.28zM616.04 447.38a11.68 11.68 0 0 0-3.91-2.56c0.17-0.14 0.34-0.28 0.51-0.44 0.21-0.21 0.45-0.44 0.64-0.69l0.49-0.68c1.26-1.82 2.24-3.72 3.05-5.69 0.8-1.98 1.43-4.03 1.79-6.2 0.27-1.59 0.42-3.22 0.36-4.98-0.03-0.91-1.07-1.43-1.8-0.9-1.43 1.06-2.6 2.27-3.66 3.51-1.43 1.7-2.57 3.53-3.54 5.42a31.99 31.99 0 0 0-2.32 5.9c-0.17 0.53-0.26 0.98-0.29 1.49-0.07 0.52-0.14 1.13-0.17 1.78-0.01 0.32-0.01 0.66 0.02 1.01-0.18 0.21-0.28 0.48-0.27 0.78 0.1 1.56 0.64 2.99 1.17 4.06 0.72 1.42 1.6 2.58 2.56 3.55 0.97 0.98 2.05 1.75 3.28 2.45 1.01 0.55 2.1 1.05 3.56 1.57 0.65 0.23 1.36-0.16 1.51-0.83 0.33-1.57 0.1-3.06-0.33-4.39-0.58-1.64-1.53-3.04-2.65-4.16zM597.66 437.14c0.43-1.87 0.71-3.75 0.82-5.82 0.05-0.93-0.98-1.55-1.75-1.03-1.78 1.2-3.18 2.72-4.43 4.25a31.703 31.703 0 0 0-3.95 6.51 33.873 33.873 0 0 0-2.36 7.15c-0.39 1.91-0.63 3.84-0.62 5.94 0.01 0.92 1.07 1.47 1.81 0.91a0.5 0.5 0 0 0 0.08-0.07c0.04 0.06 0.07 0.12 0.11 0.18 0.7 1.07 1.51 1.91 2.45 2.55 0.94 0.65 2 1.1 3.26 1.37 1.06 0.21 2.23 0.31 3.72 0.11 0.54-0.07 0.95-0.55 0.94-1.09-0.04-1.52-0.45-2.7-0.99-3.74a8.237 8.237 0 0 0-2.62-2.92c-0.73-0.5-1.55-0.87-2.43-1.12 1.43-1.94 2.62-3.99 3.58-6.12 1.02-2.27 1.81-4.62 2.38-7.06zM573.35 447c0.41-1.66 0.77-3.43 0.64-5.37-0.06-0.86-1.05-1.32-1.77-0.85a23.809 23.809 0 0 0-4.05 3.27c-1.53 1.55-2.82 3.25-3.91 5.08s-1.95 3.8-2.56 5.92c-0.11 0.4-0.2 0.8-0.3 1.2-0.4 0.22-0.65 0.67-0.59 1.16 0.06 0.4 0.13 0.79 0.21 1.16-0.06 0.58-0.09 1.18-0.08 1.79 0.02 0.63 0.54 1.07 1.11 1.09 0.03 0.07 0.06 0.14 0.09 0.2 0.79 1.58 1.79 2.95 2.98 4.13 1.18 1.19 2.55 2.19 4.13 2.98 1.26 0.6 2.62 1.11 4.26 1.32 0.75 0.1 1.39-0.55 1.29-1.29-0.22-1.64-0.73-3-1.33-4.26a15.584 15.584 0 0 0-6.4-6.7c1.46-1.48 2.7-3.1 3.72-4.85 1.11-1.85 1.97-3.83 2.56-5.98zM677.76 490.05c-1.53-1.05-3.03-1.7-4.52-2.23a23.703 23.703 0 0 0-11.26-0.98c-1.56 0.26-3.14 0.64-4.83 1.4-0.68 0.3-0.82 1.19-0.29 1.7 1.35 1.28 2.82 2.13 4.32 2.8 1.89 0.82 3.84 1.3 5.82 1.48s3.99 0.05 5.99-0.43c1.6-0.4 3.19-0.99 4.75-2.02 0.62-0.4 0.63-1.3 0.02-1.72zM652.47 472.26c-0.05-0.01-0.11-0.24-0.17-0.39l-0.34-1.35-0.67-3.13c-0.33-1.46-0.7-2.97-1.21-4.49-0.29-0.87-1.52-0.92-1.9-0.09-0.67 1.45-1.2 2.92-1.62 4.43a22.55 22.55 0 0 0-0.7 3.46c-0.08 0.6-0.13 1.24-0.12 1.93 0.02 0.39 0.01 0.71 0.1 1.23l0.15 0.73 0.07 0.43c0.39 2.29 1.29 4.39 2.58 6.26 1.14 1.6 2.53 3.05 4.6 4.23 0.55 0.31 1.27 0.01 1.44-0.59 0.62-2.31 0.54-4.33 0.24-6.22-0.39-2.19-1.11-4.18-2.18-6.03l-0.2-0.35c-0.06-0.09-0.04-0.03-0.07-0.06zM689.66 467.75c-1.69-0.5-3.37-0.71-5.04-0.65s-3.34 0.37-4.99 0.98c-1.34 0.52-2.67 1.19-3.99 2.28-0.53 0.44-0.5 1.24 0.05 1.64 1.39 1.01 2.76 1.59 4.13 2.03 1.69 0.5 3.37 0.71 5.04 0.66s3.34-0.36 4.99-0.97c1.34-0.52 2.68-1.19 4-2.3 0.52-0.44 0.5-1.24-0.05-1.64-1.39-1.01-2.77-1.6-4.14-2.03zM665.42 449.34c-0.62-0.32-1.38 0.06-1.49 0.75-0.29 1.73-0.44 3.14-0.51 4.53-0.07 1.7 0 3.34 0.29 5.04 0.29 1.69 0.8 3.43 1.65 5.17 0.71 1.38 1.6 2.79 2.96 3.97 0.53 0.46 1.36 0.26 1.63-0.39 0.68-1.63 1.05-3.07 1.29-4.55 0.27-1.81 0.28-3.63-0.03-5.49-0.31-1.85-0.96-3.74-2.06-5.48-0.9-1.39-2.1-2.71-3.73-3.55zM703.86 452.37c-1.59-0.91-3.23-1.3-4.79-1.53-1.95-0.25-3.86-0.16-5.71 0.23s-3.65 1.07-5.36 2.11c-1.33 0.86-2.76 1.92-3.76 3.5-0.37 0.59-0.03 1.38 0.65 1.53 1.71 0.39 3.15 0.65 4.66 0.72 1.83 0.08 3.61-0.06 5.35-0.42 1.74-0.35 3.44-0.93 5.11-1.77a18.9 18.9 0 0 0 4-2.7c0.54-0.46 0.46-1.31-0.15-1.67zM625.85 497.51c0.88 1.29 1.97 2.7 3.58 3.65 0.6 0.35 1.37 0 1.52-0.68 0.37-1.72 0.61-3.16 0.64-4.68 0.04-1.84-0.16-3.63-0.64-5.39-0.47-1.76-1.19-3.49-2.26-5.15-0.88-1.29-1.97-2.69-3.56-3.65-0.6-0.36-1.37 0-1.52 0.68-0.37 1.71-0.6 3.15-0.63 4.66-0.04 1.84 0.17 3.63 0.63 5.39 0.45 1.78 1.17 3.51 2.24 5.17zM655.42 502.99c-1.83-0.93-3.7-1.38-5.51-1.68a26.22 26.22 0 0 0-6.73-0.12c-2.2 0.23-4.35 0.72-6.48 1.45-1.69 0.6-3.32 1.34-5.02 2.38-0.68 0.41-0.67 1.4 0.02 1.78 1.81 0.98 3.69 1.46 5.5 1.78 2.3 0.37 4.56 0.4 6.77 0.17s4.38-0.72 6.51-1.49c1.7-0.63 3.34-1.39 5.02-2.5 0.67-0.42 0.62-1.41-0.08-1.77zM615.15 514.81c-0.83-1.2-1.93-2.22-3.27-2.99-1.15-0.63-2.44-1.11-4.06-1.19-0.53-0.03-1 0.41-1.02 0.95-0.06 1.6 0.15 2.85 0.45 4 0.38 1.35 0.92 2.51 1.64 3.55 0.71 1.04 1.61 1.96 2.74 2.8a13.2 13.2 0 0 0 3.59 1.84c0.5 0.17 1.08-0.11 1.24-0.61 0.51-1.55 0.51-2.94 0.33-4.23-0.23-1.54-0.8-2.92-1.64-4.12zM643.86 519.53c-1.71-1.02-3.41-1.64-5.12-2.1-2.15-0.56-4.3-0.82-6.45-0.81-2.15 0-4.3 0.26-6.45 0.82-1.7 0.47-3.4 1.08-5.11 2.09-0.67 0.4-0.67 1.38 0 1.78 1.7 1.02 3.4 1.62 5.11 2.09 2.15 0.56 4.3 0.82 6.45 0.82 2.15 0.01 4.3-0.25 6.45-0.81 1.71-0.47 3.41-1.08 5.12-2.1 0.67-0.41 0.67-1.38 0-1.78zM571.6 555.39a31.734 31.734 0 0 0-5.41-4.97 33.238 33.238 0 0 0-6.36-3.65c-0.33-0.14-0.66-0.26-1-0.39 0.02-0.01 0.04-0.03 0.05-0.04 1.31-1.13 2.43-2.28 3.43-3.54 1-1.25 1.88-2.6 2.7-4.13 0.64-1.25 1.26-2.59 1.76-4.27 0.2-0.67-0.3-1.35-1-1.33-1.8 0.03-3.39 0.55-4.84 1.26-1.78 0.91-3.32 2.19-4.55 3.72s-2.14 3.31-2.64 5.25c-0.14 0.6-0.24 1.22-0.3 1.84-0.5 0.23-0.78 0.84-0.5 1.4 0.17 0.34 0.35 0.66 0.53 0.98 0.03 0.26 0.06 0.52 0.11 0.79 0.09 0.45 0.46 0.74 0.87 0.8 0.6 0.88 1.24 1.71 1.9 2.49 1.63 1.89 3.44 3.54 5.4 4.98s4.07 2.67 6.36 3.65c1.81 0.76 3.71 1.4 5.84 1.71 0.82 0.12 1.44-0.73 1.08-1.47-0.97-1.95-2.16-3.57-3.43-5.08zM595.36 552.09a24.024 24.024 0 0 0-5.39-7.54c0.37-0.33 0.69-0.68 0.97-1.06 0.56-0.78 0.95-1.69 1.17-2.8 0.17-0.98 0.26-2.06 0.07-3.54-0.06-0.44-0.42-0.81-0.86-0.87-1.5-0.18-2.68 0.09-3.72 0.51-1.18 0.51-2.13 1.28-2.82 2.24-0.37 0.5-0.66 1.06-0.88 1.67-0.42 0.1-0.77 0.45-0.81 0.94-0.13 1.84 0.17 3.5 0.63 5.07 0.61 1.95 1.55 3.73 2.76 5.31 1.2 1.58 2.67 2.96 4.39 4.06 1.39 0.86 2.92 1.59 4.74 1.94 0.72 0.14 1.35-0.48 1.22-1.2-0.31-1.83-0.85-3.32-1.47-4.73zM521.71 552.78c-2.25-0.29-4.39-0.1-6.45 0.23-2.62 0.46-5.11 1.24-7.48 2.3s-4.62 2.4-6.71 4.05c-0.81 0.66-1.61 1.36-2.37 2.13-0.67-1.6-1.49-3.12-2.5-4.55-1.29-1.82-2.85-3.51-4.77-4.93-1.52-1.08-3.31-2.09-5.35-2.44-0.75-0.13-1.36 0.63-1.11 1.35 0.63 1.84 1.2 3.38 1.91 4.93 0.88 1.91 1.89 3.72 3.1 5.45 1.2 1.73 2.61 3.37 4.28 4.87 1.35 1.17 2.85 2.31 4.71 3.12 0.71 0.31 1.5-0.27 1.43-1.04-0.09-1.01-0.24-1.96-0.45-2.86 1.29-0.17 2.53-0.4 3.75-0.69 2.49-0.61 4.88-1.43 7.17-2.45 2.3-1.02 4.5-2.24 6.62-3.7 1.67-1.17 3.26-2.44 4.81-4.04 0.59-0.59 0.25-1.62-0.59-1.73zM526.98 517.39c-2.06-0.34-4-0.28-5.91-0.03-2.4 0.34-4.74 1.05-6.94 2.13s-4.27 2.55-6 4.41c-0.58 0.62-1.14 1.33-1.61 2.03-0.13-0.76-0.27-1.51-0.47-2.26-0.54-2.09-1.3-4.09-2.3-6s-2.23-3.73-3.78-5.41c-1.25-1.29-2.68-2.65-4.55-3.51-0.69-0.32-1.48 0.25-1.43 1.01 0.13 1.94 0.32 3.63 0.74 5.35 0.52 2.12 1.27 4.15 2.27 6.08s2.25 3.76 3.84 5.44c1.1 1.1 2.37 2.28 3.95 3.08 0.14 0.32 0.44 0.56 0.83 0.57 0.85 0.03 1.73-0.16 2.48-0.35 1.33-0.39 2.31-0.73 3.38-1.09 2.08-0.74 4.04-1.56 5.99-2.51s3.86-2.05 5.76-3.39c1.49-1.08 2.98-2.27 4.35-3.84 0.54-0.62 0.2-1.58-0.6-1.71zM532.06 492.16c-1.75-0.13-3.21-0.01-4.61 0.18-1.66 0.27-3.28 0.54-5.32 1.74-2.07 1.27-3.33 3.03-4.12 4.63-0.67 1.36-1 2.64-1.51 4.27-0.2 0.64 0.27 1.32 0.94 1.32 1.85 0.02 3.54-0.76 4.85-1.45 1.65-0.91 2.84-1.72 3.79-2.28 0.98-0.61 2.68-1.55 4.12-2.93 1.13-1.11 2.12-2.42 2.76-4.09 0.24-0.64-0.21-1.34-0.9-1.39zM516.89 423.44c-0.93-0.39-1.97 0.41-1.81 1.41 0.29 1.77 0.87 3.34 1.51 4.82 0.92 2.03 2.05 3.86 3.35 5.54 1.29 1.68 2.74 3.2 4.36 4.59 1.19 1.03 2.44 1.91 3.89 2.86 0.87 0.57 2.02-0.05 2.04-1.09 0.03-1.83-0.44-3.57-0.98-5.12-0.81-2.19-1.95-4.14-3.3-5.88s-2.93-3.29-4.72-4.63c-1.3-0.96-2.7-1.81-4.34-2.5zM561.76 432.47c0.63-0.89-0.13-2.13-1.23-2.03-2 0.19-3.83 0.56-5.64 1.05-2.52 0.71-4.93 1.65-7.22 2.81-2.3 1.16-4.49 2.53-6.56 4.16-1.47 1.18-2.88 2.45-4.19 3.98-0.71 0.84-0.1 2.17 1 2.16 2.03-0.02 3.94-0.35 5.78-0.77a35.46 35.46 0 0 0 7.38-2.73c2.33-1.17 4.54-2.6 6.6-4.32 1.46-1.25 2.88-2.62 4.08-4.31zM547.78 414.78c-0.67 0.91-1.28 2.04-1.41 3.44-0.07 0.69 0.44 1.31 1.12 1.42 1.33 0.22 2.31 0.32 3.27 0.3 1.18-0.03 2.27-0.27 3.35-0.79s2.15-1.33 3.04-2.5c0.67-0.93 1.27-2.08 1.36-3.49 0.05-0.68-0.47-1.29-1.15-1.39-1.35-0.19-2.32-0.29-3.27-0.26-1.16 0.04-2.24 0.28-3.3 0.8s-2.12 1.32-3.01 2.47zM541.5 386.73c0.63 1.11 1.51 2.07 2.65 2.85 0.91 0.59 1.95 1.09 3.32 1.33 0.7 0.13 1.39-0.33 1.55-1.03 0.3-1.35 0.3-2.45 0.2-3.48-0.16-1.3-0.53-2.43-1.12-3.44-0.58-1.01-1.37-1.91-2.41-2.7a10.63 10.63 0 0 0-3.09-1.59c-0.68-0.22-1.43 0.14-1.68 0.81-0.47 1.29-0.57 2.44-0.52 3.52 0.09 1.37 0.48 2.62 1.1 3.73zM580.58 381.78c-2.18-0.18-4.27-0.06-6.32 0.17-2.89 0.36-5.7 1.01-8.41 1.93a41.7 41.7 0 0 0-7.88 3.6c-1.75 1.07-3.48 2.26-5.05 3.77-0.85 0.81-0.32 2.26 0.85 2.28 2.16 0.03 4.2-0.15 6.22-0.44 2.85-0.43 5.61-1.11 8.29-2.01 2.69-0.9 5.31-2.04 7.84-3.45 1.78-1.02 3.54-2.14 5.2-3.56 0.87-0.74 0.4-2.2-0.74-2.29zM551.93 357.94c0.79 0.94 1.75 1.73 2.95 2.39 0.95 0.5 2 0.93 3.38 1.18 0.73 0.13 1.44-0.37 1.56-1.1 0.22-1.39 0.09-2.58-0.17-3.69a9.185 9.185 0 0 0-1.9-3.67 9.306 9.306 0 0 0-3.31-2.49c-1.04-0.45-2.19-0.78-3.59-0.8-0.75-0.01-1.37 0.61-1.36 1.36 0.02 1.39 0.27 2.5 0.59 3.51 0.45 1.28 1.07 2.37 1.85 3.31zM559.07 313.6c1.17 2.24 2.58 4.35 4.29 6.31 1.25 1.38 2.63 2.75 4.32 3.86 0.9 0.59 2.09-0.2 1.98-1.27-0.2-1.94-0.57-3.72-1.06-5.47-0.7-2.44-1.63-4.75-2.8-6.96a35.666 35.666 0 0 0-4.19-6.29c-1.2-1.39-2.5-2.75-4.09-3.93-0.87-0.65-2.14 0.03-2.09 1.12 0.1 1.96 0.43 3.78 0.88 5.56 0.67 2.48 1.6 4.83 2.76 7.07zM575.13 323.63c-0.62 0.75-0.2 1.92 0.75 2.12 1.66 0.34 3.22 0.37 4.73 0.29 2.07-0.14 4.04-0.57 5.92-1.23s3.68-1.58 5.37-2.77c1.23-0.89 2.42-1.9 3.5-3.22 0.61-0.75 0.2-1.92-0.75-2.12-1.67-0.35-3.23-0.38-4.75-0.29-2.07 0.14-4.04 0.57-5.91 1.24-1.88 0.67-3.67 1.59-5.37 2.78-1.22 0.88-2.41 1.88-3.49 3.2zM570.25 293.74c0.92 1.89 2.08 3.66 3.5 5.31 1.06 1.19 2.22 2.32 3.69 3.31 0.82 0.56 1.98 0 2.04-1 0.12-1.75-0.06-3.36-0.35-4.92a23.94 23.94 0 0 0-2.04-6.01c-0.93-1.89-2.09-3.66-3.51-5.3-1.06-1.18-2.22-2.31-3.67-3.3-0.82-0.56-1.98 0-2.05 1-0.11 1.74 0.07 3.35 0.35 4.9a25.06 25.06 0 0 0 2.04 6.01zM601.54 294.3c-1.73-0.2-3.32-0.12-4.87 0.05-2.11 0.26-4.11 0.76-6.04 1.49s-3.78 1.68-5.54 2.9c-1.27 0.91-2.52 1.93-3.65 3.25-0.65 0.75-0.22 1.96 0.75 2.14 1.72 0.32 3.33 0.33 4.91 0.22 2.16-0.18 4.23-0.66 6.22-1.4 1.98-0.74 3.87-1.75 5.62-3.07 1.26-0.98 2.47-2.08 3.52-3.5 0.58-0.8 0.07-1.97-0.92-2.08zM580.49 272.64c0.78 1.16 1.77 2.18 3 3.06 0.96 0.66 2.03 1.26 3.41 1.68 0.76 0.23 1.57-0.27 1.7-1.06 0.24-1.44 0.14-2.69-0.09-3.86-0.32-1.52-0.91-2.89-1.74-4.09-0.83-1.21-1.88-2.26-3.18-3.11-1.01-0.64-2.13-1.19-3.54-1.5-0.78-0.17-1.55 0.4-1.61 1.2-0.11 1.44 0.05 2.64 0.31 3.78 0.37 1.44 0.96 2.74 1.74 3.9zM604.53 265.93c-2.02 0.46-3.92 1.17-5.7 2.11s-3.45 2.1-4.98 3.54c-1.1 1.06-2.16 2.24-3.05 3.71-0.5 0.84 0.09 1.94 1.07 1.98 1.7 0.07 3.24-0.11 4.75-0.42a22.57 22.57 0 0 0 5.75-2.09c1.8-0.94 3.47-2.12 5.01-3.58 1.1-1.09 2.18-2.31 3.03-3.84 0.47-0.84-0.18-1.9-1.14-1.91-1.71-0.02-3.24 0.17-4.74 0.5zM582.44 239.43c0.89 2.01 2.02 3.84 3.35 5.51s2.87 3.18 4.65 4.51c1.31 0.95 2.72 1.83 4.38 2.51 0.93 0.38 1.95-0.43 1.79-1.42-0.28-1.74-0.81-3.28-1.44-4.74-0.89-2.01-2.02-3.84-3.36-5.5a25.454 25.454 0 0 0-4.65-4.5c-1.31-0.95-2.71-1.83-4.37-2.51-0.93-0.38-1.95 0.43-1.79 1.42 0.28 1.72 0.82 3.26 1.44 4.72zM617.23 245.32c0.47-0.77 0.03-1.8-0.85-1.98-1.55-0.32-2.97-0.33-4.34-0.22-1.83 0.18-3.54 0.63-5.15 1.33-1.61 0.69-3.11 1.62-4.5 2.83-1.02 0.91-1.99 1.94-2.83 3.28-0.48 0.77-0.03 1.81 0.85 1.99 1.55 0.32 2.96 0.32 4.32 0.21 1.83-0.18 3.54-0.63 5.15-1.32s3.12-1.62 4.51-2.82c1.03-0.92 2-1.95 2.84-3.3zM591.43 219.42c1.13 1.65 2.49 3.13 4.11 4.42 1.2 0.92 2.53 1.78 4.12 2.38 0.9 0.34 1.86-0.42 1.76-1.37-0.18-1.67-0.56-3.12-1.05-4.52-0.68-1.89-1.58-3.61-2.68-5.2a23.712 23.712 0 0 0-3.86-4.36 21.51 21.51 0 0 0-3.75-2.64c-0.83-0.47-1.91 0.09-1.95 1.04-0.08 1.72 0.25 3.31 0.66 4.78 0.62 2 1.51 3.82 2.64 5.47zM624.15 220.78c0.59-0.77 0.14-1.92-0.81-2.09-1.7-0.3-3.27-0.3-4.79-0.18-2.06 0.19-4 0.65-5.85 1.36s-3.6 1.66-5.26 2.89c-1.21 0.92-2.38 1.96-3.44 3.31-0.6 0.76-0.17 1.93 0.79 2.1 1.65 0.3 3.19 0.3 4.7 0.18 2.07-0.19 4.04-0.67 5.93-1.38a21.89 21.89 0 0 0 5.34-2.91c1.2-0.92 2.36-1.95 3.39-3.28zM602.21 206.77c0.79 0.38 1.73 0.66 3.1 0.66 0.45 0 0.87-0.26 1.09-0.65 0.66-1.19 0.92-2.09 1.04-2.91 0.11-0.94-0.01-1.73-0.36-2.4s-0.92-1.23-1.75-1.69c-0.74-0.38-1.62-0.7-2.96-0.86-0.45-0.05-0.91 0.14-1.17 0.51-0.8 1.1-1.11 2.03-1.26 2.89-0.15 0.99-0.01 1.87 0.37 2.62 0.38 0.74 1.01 1.37 1.9 1.83zM609.73 208.7c1.4 0.35 2.6 0.43 3.75 0.42 1.49-0.04 2.85-0.29 4.14-0.74 1.29-0.44 2.51-1.09 3.7-1.98 0.91-0.7 1.8-1.52 2.69-2.67 0.49-0.64 0.29-1.59-0.42-1.97-1.3-0.7-2.56-1-3.8-1.13-1.63-0.14-3.2 0.07-4.67 0.58-1.47 0.52-2.83 1.33-4.02 2.45-0.89 0.87-1.69 1.89-2.27 3.23-0.33 0.74 0.11 1.61 0.9 1.81zM437.44 233.25c1.96 0.15 3.6-0.01 5.17-0.25 1.94-0.34 3.7-0.87 5.4-1.6s3.31-1.67 4.93-2.89c1.33-1.03 2.66-2.19 4.03-3.86 0.51-0.62 0.35-1.56-0.36-1.95-1.84-1.03-3.68-1.41-5.49-1.49-2.21-0.07-4.37 0.37-6.36 1.25-2 0.88-3.84 2.18-5.4 3.9-1.26 1.43-2.36 3.09-3.06 5.22-0.25 0.78 0.3 1.61 1.14 1.67zM612.77 189.44c1.98-0.02 3.82-0.26 5.61-0.57 2.51-0.47 4.9-1.14 7.23-1.98s4.59-1.86 6.82-3.11c1.58-0.91 3.15-1.91 4.69-3.18 0.84-0.7 0.48-2.1-0.59-2.3-1.99-0.37-3.92-0.39-5.82-0.25-2.65 0.22-5.23 0.8-7.69 1.7s-4.81 2.11-6.98 3.64c-1.54 1.11-3 2.36-4.29 3.91-0.7 0.84-0.07 2.15 1.02 2.14z" fill="#ABC168" p-id="7507"></path><path d="M305.28 490.43c-3.35 0.91-6.12 3.71-6.84 7.13-0.71 3.4 0.38 7.77 3.64 9.54 0.57 0.31 1.15 0.5 1.75 0.63 4.77 2.56 11.52-0.22 13.09-5.79 1.9-6.81-4.95-13.33-11.64-11.51zM759.37 450.25c-1.85-3.03-5.88-4.99-9.27-3.88-1.96 0.64-4.02 2.41-5.15 4.11-0.43 0.64-0.68 1.26-0.83 1.87-1.7 3.17-0.75 7.72 3.19 9.75 1.46 0.75 3.28 1.14 5.15 1.16 0.39 0.05 0.78 0.04 1.17-0.04 4.11-0.3 8.15-2.39 8.91-6.44 0.51-2.71-0.79-5.35-3.17-6.53zM647.86 535.38c-2.57-2.27-6.28-1.85-8.86 0.31-0.4 0.34-0.76 0.7-1.09 1.07-0.46 0.18-0.91 0.45-1.29 0.87-1.99 2.2-2.37 5.39-1.26 7.96 0.32 3.04 1.88 6 4.89 7.09 3.51 1.28 7.67 0.19 10.58-2 3.13-2.35 3.99-5.49 3.27-9.26-0.61-3.25-3.14-5.37-6.24-6.04zM524.78 319.52c-0.1-0.02-0.23-0.02-0.34-0.04-0.82-0.35-1.65-0.52-2.46-0.51-1.28-0.54-2.72-0.58-4.26 0.2-1.28 0.65-2.07 1.65-2.55 2.81-0.19 0.2-0.39 0.4-0.53 0.63-0.87 1.41-0.98 3.04-0.64 4.62-0.04 0.69 0.01 1.39 0.19 2.07 0.71 2.74 2.84 4.94 5.54 5.78 2.82 0.87 6.43-0.23 7.59-3.08 0.38-0.12 0.75-0.27 1.11-0.49a5.38 5.38 0 0 0 2.55-4.49c0.09-3.75-2.62-6.86-6.2-7.5zM412.4 359.9c-0.16 0.02-0.34 0.05-0.51 0.07-1.45-0.25-2.96-0.06-4.42 0.89-1.72 0.55-3.28 1.41-4.17 2.92-1.76 3-0.44 7.78 0.4 10.86 0.74 2.69 3.44 3.19 5.38 2.25 0.31 0.13 0.61 0.26 0.94 0.35 3.25 0.89 6.67-0.46 8.43-3.32 1.54-2.51 1.5-5.66 0.97-8.45-0.68-3.66-3.12-6.1-7.02-5.57z m-0.32 10.01c-0.02 0-0.02-0.02-0.04-0.03 0.11-0.04 0.17 0.05 0.04 0.03zM328.62 326.96c-3.77 0.98-6.58 4.99-6.14 8.87 0.23 2.04 1.58 3.8 3.8 3.8 0.7 0 1.43-0.24 2.07-0.65 1.15 1.38 2.82 2.3 4.89 2.25 5.03-0.11 7.11-5.8 5.05-9.86-1.77-3.48-5.87-5.4-9.67-4.41zM491.77 446.71c-0.72 0.09-1.41 0.33-2.07 0.63-0.79 0.27-1.46 0.69-1.98 1.27-1.97 1.78-2.95 4.53-1.52 7.2 0.33 0.62 0.77 1.1 1.25 1.51 1.33 2.54 3.52 4.75 6.25 5.52 3.29 0.94 7.05-0.13 9.12-2.91 5.41-7.2-4.33-14.07-11.05-13.22zM632.84 341.4c2.98-3.42 2.62-9.18-1.55-11.52-5.31-2.98-11.88 1.67-12.96 7.11-0.4 2.01 0.57 4.11 2.66 4.68 0.54 0.15 1.13 0.14 1.7 0.03 2.44 2.56 6.56 3.08 9.56 0.38 0.16-0.14 0.27-0.32 0.41-0.47 0.02-0.02 0.04-0.03 0.06-0.05 0.04-0.06 0.07-0.11 0.12-0.16z" fill="#BB4222" p-id="7508"></path><path d="M524.02 776.2c-0.14-26.85-1.1-53.69-2.86-80.47a1372.5 1372.5 0 0 0-2.77-35.12c-0.5-5.44-0.04-13.49-3.32-18.62 0.15-2.01-1.05-4.14-3.65-4.14-0.38 0-0.72 0.06-1.04 0.14-5.48-2.69-13.51-2.73-18.77-2.99-10.35-0.52-20.45 0.84-30.41 3.42-0.54-0.35-1.21-0.57-2.02-0.57-1.75 0-2.86 0.97-3.36 2.22-1.69-0.24-3.46 0.51-3.97 2.66-11.18 47.02-15.97 95.39-13.48 143.68 0.41 7.96-1.12 21.28 2.77 28.48 0.53 0.98 1.15 1.8 1.82 2.51-0.06 1.95 1.15 3.94 3.66 3.94 0.85 0 1.53-0.24 2.09-0.61 3.06 0.89 6.52 1.1 9.97 1.62 9.92 1.47 19.91 2.48 29.92 2.96 8.18 0.39 19.47 2.36 27.3-0.97 1.61-0.68 2.84-1.47 3.83-2.35 0.1 0.01 0.19 0.03 0.29 0.03 3.49 0 4.48-3.86 2.99-6.08 0.32-1.36 0.54-2.84 0.73-4.49 1.37-11.38 0.34-23.82 0.28-35.25z" fill="#CDCAC9" p-id="7509"></path></svg>